<svg width="148" height="60" viewBox="0 0 148 60" fill="none" xmlns="http://www.w3.org/2000/svg">
<path d="M79.3343 38.5994L76.5693 33.7192H79.4674L81.1826 37.2999L83.8442 33.7192H86.6388L82.5577 38.556L85.5742 43.9416H82.676L80.7095 39.8266L77.6339 43.9416H74.8984L79.3343 38.5994Z" fill="white"/>
<path d="M88.1027 33.7192H91.9915C92.5343 33.7192 93.0392 33.7666 93.506 33.8636C93.975 33.9605 94.3721 34.1255 94.6974 34.3627C95.0227 34.5999 95.2635 34.9155 95.4219 35.3157C95.5803 35.7158 95.6141 36.2191 95.5254 36.8255C95.4367 37.4216 95.2635 37.9228 95.0079 38.3271C94.7523 38.7314 94.4333 39.0531 94.0531 39.2945C93.6729 39.5358 93.2399 39.707 92.7519 39.8081C92.264 39.9091 91.7443 39.9607 91.1909 39.9607H89.5053L88.9434 43.9457H86.6367L88.1006 33.7233L88.1027 33.7192ZM89.7883 38.0507H91.3261C91.5331 38.0507 91.7359 38.0321 91.9323 37.993C92.1288 37.9538 92.3126 37.8898 92.4794 37.797C92.6463 37.7062 92.7899 37.5804 92.9082 37.4216C93.0265 37.2628 93.1005 37.0627 93.13 36.8214C93.1702 36.5615 93.1385 36.3511 93.035 36.1943C92.9315 36.0355 92.7878 35.9118 92.6062 35.8251C92.4245 35.7385 92.2175 35.6828 91.9851 35.6601C91.7528 35.6354 91.5289 35.625 91.3134 35.625H90.1305L89.7904 38.0507H89.7883Z" fill="white"/>
<path d="M97.4182 33.7192H101.47C102.002 33.7192 102.5 33.7707 102.963 33.8698C103.426 33.9708 103.821 34.14 104.146 34.3751C104.471 34.6102 104.712 34.9279 104.87 35.328C105.029 35.7282 105.063 36.2253 104.974 36.8234C104.866 37.5454 104.585 38.158 104.131 38.6633C103.677 39.1687 103.071 39.4884 102.312 39.6245L104.353 43.9416H101.588L99.9762 39.8555H98.8377L98.261 43.9416H95.9543L97.4182 33.7192ZM99.1186 37.9496H100.479C100.686 37.9496 100.906 37.9414 101.138 37.929C101.37 37.9146 101.584 37.8713 101.78 37.7991C101.977 37.7269 102.15 37.6134 102.298 37.4608C102.446 37.3061 102.538 37.0895 102.579 36.8111C102.619 36.5512 102.593 36.3449 102.505 36.1902C102.416 36.0355 102.293 35.9179 102.135 35.8375C101.977 35.755 101.793 35.6993 101.582 35.6725C101.37 35.6436 101.159 35.6292 100.954 35.6292H99.446L99.1207 37.9538L99.1186 37.9496Z" fill="white"/>
<path d="M107.089 33.7192H114.201L113.905 35.7983H109.1L108.819 37.7042H113.358L113.062 39.7833H108.523L108.227 41.8624H113.299L113.003 43.9416H105.625L107.089 33.7192Z" fill="white"/>
<path d="M121.136 36.217C120.977 35.986 120.747 35.8148 120.441 35.7055C120.135 35.5941 119.839 35.5384 119.554 35.5384C119.387 35.5384 119.209 35.557 119.021 35.5962C118.833 35.6354 118.66 35.6952 118.495 35.7777C118.333 35.8602 118.193 35.9674 118.073 36.1036C117.955 36.2376 117.881 36.4027 117.851 36.5945C117.822 36.8255 117.864 37.0153 117.976 37.1638C118.09 37.3123 118.252 37.4381 118.464 37.5392C118.675 37.6402 118.922 37.7289 119.203 37.8052C119.484 37.8816 119.767 37.9682 120.052 38.0651C120.337 38.1621 120.616 38.2776 120.889 38.4117C121.159 38.5457 121.393 38.7169 121.592 38.9232C121.788 39.1295 121.934 39.3893 122.029 39.7029C122.122 40.0164 122.135 40.3938 122.065 40.8373C121.987 41.4045 121.805 41.9016 121.524 42.3245C121.244 42.7473 120.899 43.1 120.489 43.3785C120.08 43.6569 119.621 43.8653 119.114 43.9993C118.607 44.1334 118.081 44.2015 117.538 44.2015C116.858 44.2015 116.242 44.1004 115.69 43.8983C115.139 43.6961 114.64 43.3682 114.197 42.9164L116.104 41.155C116.301 41.4623 116.565 41.7016 116.896 41.8686C117.226 42.0378 117.583 42.1223 117.967 42.1223C118.155 42.1223 118.348 42.0996 118.544 42.0563C118.74 42.013 118.924 41.947 119.091 41.8604C119.258 41.7737 119.399 41.6624 119.514 41.5283C119.628 41.3942 119.699 41.2354 119.727 41.0518C119.775 40.7445 119.691 40.5011 119.469 40.3217C119.247 40.1443 118.964 39.9916 118.618 39.8658C118.274 39.74 117.898 39.6162 117.494 39.4904C117.091 39.3646 116.721 39.1975 116.385 38.9851C116.049 38.7726 115.787 38.4942 115.593 38.1476C115.401 37.8011 115.344 37.3432 115.422 36.776C115.5 36.2273 115.682 35.7467 115.963 35.3321C116.244 34.9176 116.59 34.571 117.004 34.2926C117.418 34.0141 117.876 33.8037 118.379 33.6655C118.882 33.5253 119.389 33.4572 119.902 33.4572C120.494 33.4572 121.053 33.5397 121.579 33.7027C122.107 33.8656 122.564 34.1399 122.948 34.5257L121.129 36.215L121.136 36.217Z" fill="white"/>
<path d="M129.623 36.217C129.465 35.986 129.235 35.8148 128.928 35.7055C128.622 35.5941 128.326 35.5384 128.041 35.5384C127.874 35.5384 127.697 35.557 127.509 35.5962C127.321 35.6354 127.148 35.6952 126.983 35.7777C126.82 35.8602 126.681 35.9674 126.56 36.1036C126.442 36.2376 126.368 36.4027 126.339 36.5945C126.309 36.8255 126.351 37.0153 126.463 37.1638C126.577 37.3123 126.74 37.4381 126.951 37.5392C127.162 37.6402 127.41 37.7289 127.691 37.8052C127.971 37.8816 128.255 37.9682 128.54 38.0651C128.825 38.1621 129.104 38.2776 129.376 38.4117C129.647 38.5457 129.881 38.7169 130.08 38.9232C130.276 39.1295 130.422 39.3893 130.517 39.7029C130.61 40.0164 130.622 40.3938 130.553 40.8373C130.475 41.4045 130.293 41.9016 130.012 42.3245C129.731 42.7473 129.387 43.1 128.977 43.3785C128.567 43.6569 128.109 43.8653 127.602 43.9993C127.095 44.1334 126.569 44.2015 126.026 44.2015C125.346 44.2015 124.729 44.1004 124.178 43.8983C123.626 43.6961 123.128 43.3682 122.684 42.9164L124.592 41.155C124.788 41.4623 125.052 41.7016 125.384 41.8686C125.713 42.0378 126.07 42.1223 126.455 42.1223C126.643 42.1223 126.835 42.0996 127.032 42.0563C127.228 42.013 127.412 41.947 127.579 41.8604C127.745 41.7737 127.887 41.6624 128.001 41.5283C128.115 41.3942 128.187 41.2354 128.214 41.0518C128.263 40.7445 128.178 40.5011 127.957 40.3217C127.735 40.1443 127.452 39.9916 127.105 39.8658C126.761 39.74 126.385 39.6162 125.982 39.4904C125.578 39.3646 125.209 39.1975 124.873 38.9851C124.537 38.7726 124.275 38.4942 124.081 38.1476C123.888 37.8011 123.831 37.3432 123.909 36.776C123.988 36.2273 124.169 35.7467 124.45 35.3321C124.731 34.9176 125.078 34.571 125.492 34.2926C125.906 34.0141 126.364 33.8037 126.867 33.6655C127.369 33.5253 127.876 33.4572 128.39 33.4572C128.981 33.4572 129.541 33.5397 130.067 33.7027C130.595 33.8656 131.051 34.1399 131.436 34.5257L129.617 36.215L129.623 36.217Z" fill="white"/>
<path d="M67.7937 35.8172H74.9339L75.235 33.7278H68.097L67.7937 35.8172Z" fill="white"/>
<path d="M65.0815 39.822H72.2196L72.5207 37.7326H65.3827L65.0815 39.822Z" fill="white"/>
<path d="M66.6233 43.9925H73.7635L74.0646 41.9031H66.9244L66.6233 43.9925Z" fill="white"/>
<path d="M32.7571 35.2175L17.4673 42.6431L24.1388 45.2481L27.9517 51.2595L32.7571 35.2175Z" fill="white"/>
<path d="M47.7691 17.6887H43.0041C42.8874 17.6887 42.792 17.7818 42.792 17.8957V20.8465H39.5835V17.8957C39.5835 17.7818 39.4881 17.6887 39.3714 17.6887H34.0995C33.9829 17.6887 33.8875 17.7818 33.8875 17.8957V20.8465H30.6789V17.8957C30.6789 17.7818 30.5835 17.6887 30.4669 17.6887H25.7018C25.5852 17.6887 25.4897 17.7818 25.4897 17.8957V23.3998C25.4897 23.5489 25.5449 23.6938 25.6467 23.8077L26.9191 25.2344C27.0378 25.369 27.0929 25.545 27.0696 25.7211L25.5767 37.0853L34.7039 32.6539C34.8693 32.5731 35.0538 32.7243 35.0008 32.8982L33.5503 37.7438H47.9854L46.4056 25.7231C46.3822 25.5471 46.4374 25.369 46.5561 25.2365L47.8285 23.8098C47.9303 23.6959 47.9854 23.5509 47.9854 23.4018V17.8978C47.9854 17.7839 47.89 17.6907 47.7734 17.6907L47.7691 17.6887Z" fill="white"/>
<path d="M27.9517 51.2574L32.7549 35.2174L17.4673 42.6431L22.6692 44.6765L18.1374 49.9507C17.9996 50.1122 18.0208 50.3524 18.1862 50.487L19.9293 51.9159C20.0948 52.0505 20.3407 52.0297 20.4786 51.8682L24.9998 46.6065L27.9517 51.2574Z" fill="white"/>
<path d="M36.6549 7.63312C25.2459 7.63312 15.9978 16.6636 15.9978 27.8042C15.9978 32.2873 17.4971 36.4288 20.0312 39.7793L23.8039 37.9467C21.5072 35.176 20.1288 31.6475 20.1288 27.8042C20.1288 18.8917 27.5277 11.6669 36.6549 11.6669C45.7821 11.6669 53.181 18.8917 53.181 27.8042C53.181 36.7167 45.7821 43.9415 36.6549 43.9415C34.9987 43.9415 33.4019 43.7013 31.8941 43.2581L30.7341 47.1325C32.6109 47.6791 34.5979 47.9753 36.6549 47.9753C48.0639 47.9753 57.312 38.9448 57.312 27.8042C57.312 16.6636 48.0639 7.63312 36.6549 7.63312Z" fill="white"/>
<path d="M54.7478 44.6304H55.4221C55.4743 44.6304 55.5459 44.6334 55.6372 44.6395C55.7284 44.6455 55.818 44.6667 55.906 44.7029C55.9939 44.7392 56.0705 44.7966 56.1356 44.8752C56.2008 44.9507 56.2334 45.0595 56.2334 45.2016C56.2334 45.2923 56.2203 45.3678 56.1943 45.4283C56.1682 45.4857 56.134 45.534 56.0917 45.5733C56.0526 45.6096 56.0053 45.6383 55.9499 45.6595C55.8978 45.6776 55.844 45.6897 55.7887 45.6957L56.2774 46.3984H55.7642L55.3293 45.7184H55.2462V46.3984H54.7478V44.6304ZM55.2413 45.3648H55.4417C55.471 45.3648 55.502 45.3633 55.5345 45.3603C55.5704 45.3572 55.603 45.3497 55.6323 45.3376C55.6616 45.3255 55.686 45.3074 55.7056 45.2832C55.7251 45.256 55.7349 45.2197 55.7349 45.1744C55.7349 45.1291 55.7251 45.0943 55.7056 45.0701C55.686 45.0429 55.6616 45.0233 55.6323 45.0112C55.603 44.9991 55.5704 44.9915 55.5345 44.9885C55.502 44.9855 55.471 44.984 55.4417 44.984H55.2413V45.3648ZM53.6287 45.5325C53.6287 45.2998 53.6759 45.0822 53.7704 44.8797C53.8681 44.6742 53.9984 44.4959 54.1613 44.3448C54.3275 44.1907 54.5197 44.0698 54.738 43.9821C54.9595 43.8915 55.1957 43.8461 55.4466 43.8461C55.6974 43.8461 55.932 43.8915 56.1503 43.9821C56.3718 44.0698 56.5641 44.1907 56.7269 44.3448C56.8931 44.4959 57.0234 44.6742 57.1179 44.8797C57.2156 45.0822 57.2645 45.2998 57.2645 45.5325C57.2645 45.7652 57.2156 45.9843 57.1179 46.1899C57.0234 46.3923 56.8931 46.5706 56.7269 46.7248C56.5641 46.8759 56.3718 46.9968 56.1503 47.0874C55.932 47.1751 55.6974 47.2189 55.4466 47.2189C55.1957 47.2189 54.9595 47.1751 54.738 47.0874C54.5197 46.9968 54.3275 46.8759 54.1613 46.7248C53.9984 46.5706 53.8681 46.3923 53.7704 46.1899C53.6759 45.9843 53.6287 45.7652 53.6287 45.5325ZM54.1271 45.5325C54.1271 45.7078 54.1613 45.874 54.2297 46.0312C54.2982 46.1853 54.3926 46.3198 54.5132 46.4346C54.6337 46.5495 54.7738 46.6417 54.9335 46.7112C55.0931 46.7777 55.2641 46.8109 55.4466 46.8109C55.629 46.8109 55.8001 46.7777 55.9597 46.7112C56.1193 46.6417 56.2594 46.5495 56.38 46.4346C56.5005 46.3198 56.595 46.1853 56.6634 46.0312C56.7318 45.874 56.766 45.7078 56.766 45.5325C56.766 45.3572 56.7318 45.1925 56.6634 45.0384C56.595 44.8812 56.5005 44.7452 56.38 44.6304C56.2594 44.5155 56.1193 44.4249 55.9597 44.3584C55.8001 44.2889 55.629 44.2541 55.4466 44.2541C55.2641 44.2541 55.0931 44.2889 54.9335 44.3584C54.7738 44.4249 54.6337 44.5155 54.5132 44.6304C54.3926 44.7452 54.2982 44.8812 54.2297 45.0384C54.1613 45.1925 54.1271 45.3572 54.1271 45.5325Z" fill="white"/>
<path d="M78.0811 16.3015C77.6831 15.8281 77.1942 15.4664 76.6141 15.2121C76.0341 14.9579 75.3652 14.8318 74.6031 14.8318C73.8411 14.8318 73.1362 14.9765 72.4884 15.2617C71.8406 15.5491 71.2776 15.9501 70.8013 16.4648C70.325 16.9795 69.9545 17.5913 69.6857 18.3024C69.4169 19.0114 69.2835 19.7803 69.2835 20.6071C69.2835 21.4339 69.4169 22.2256 69.6857 22.9263C69.9545 23.6271 70.3207 24.2348 70.7886 24.7515C71.2564 25.2662 71.8047 25.6672 72.4355 25.9546C73.0663 26.2419 73.7458 26.3845 74.4719 26.3845C75.3017 26.3845 76.0362 26.215 76.6776 25.8781C77.3169 25.5412 77.8461 25.0678 78.261 24.4601L81.6332 26.9178C80.8542 27.9823 79.8699 28.7678 78.6759 29.2742C77.482 29.7807 76.2543 30.0349 74.9905 30.0349C73.5553 30.0349 72.2301 29.8158 71.0214 29.3755C69.8106 28.9373 68.7649 28.3069 67.8821 27.4883C66.9994 26.6698 66.3114 25.6776 65.8203 24.5118C65.3271 23.346 65.0815 22.0458 65.0815 20.6092C65.0815 19.1726 65.3271 17.8724 65.8203 16.7066C66.3135 15.5408 67.0015 14.5486 67.8821 13.7301C68.7649 12.9115 69.8106 12.2811 71.0214 11.8429C72.2323 11.4046 73.5553 11.1835 74.9905 11.1835C75.5091 11.1835 76.0489 11.231 76.612 11.322C77.173 11.415 77.7276 11.5617 78.2737 11.7664C78.8199 11.971 79.3406 12.2397 79.8445 12.5767C80.3461 12.9157 80.7949 13.3291 81.1929 13.819L78.079 16.3015H78.0811Z" fill="white"/>
<path d="M87.9159 15.1356H82.6746V11.6402H97.2046V15.1376H91.9633V29.578H87.9159V15.1356Z" fill="white"/>
<path d="M99.2031 11.6402H103.251V29.578H99.2031V11.6402Z" fill="white"/>
<path d="M118.43 16.3014C118.032 15.8281 117.543 15.4663 116.963 15.2121C116.383 14.9578 115.714 14.8317 114.952 14.8317C114.19 14.8317 113.485 14.9764 112.838 15.2617C112.19 15.549 111.627 15.95 111.151 16.4647C110.674 16.9794 110.304 17.5912 110.035 18.3023C109.766 19.0113 109.633 19.7802 109.633 20.6071C109.633 21.4339 109.766 22.2256 110.035 22.9263C110.304 23.627 110.67 24.2347 111.138 24.7515C111.606 25.2662 112.154 25.6672 112.785 25.9545C113.416 26.2418 114.095 26.3845 114.821 26.3845C115.651 26.3845 116.386 26.215 117.027 25.878C117.666 25.5411 118.195 25.0677 118.61 24.46L121.982 26.9177C121.203 27.9823 120.219 28.7678 119.025 29.2742C117.831 29.7806 116.604 30.0348 115.34 30.0348C113.905 30.0348 112.579 29.8157 111.371 29.3755C110.16 28.9373 109.114 28.3068 108.231 27.4883C107.349 26.6697 106.661 25.6775 106.167 24.5117C105.674 23.3459 105.429 22.0457 105.429 20.6091C105.429 19.1725 105.674 17.8724 106.167 16.7066C106.661 15.5407 107.349 14.5486 108.231 13.73C109.114 12.9115 110.16 12.281 111.371 11.8428C112.582 11.4046 113.905 11.1834 115.34 11.1834C115.858 11.1834 116.398 11.231 116.961 11.3219C117.522 11.4149 118.077 11.5617 118.621 11.7663C119.165 11.971 119.688 12.2397 120.192 12.5766C120.693 12.9156 121.142 13.329 121.54 13.8189L118.426 16.3014H118.43Z" fill="white"/>
</svg>
