<svg width="148" height="60" fill="none" xmlns="http://www.w3.org/2000/svg"><path d="m79.334 38.6-2.765-4.88h2.898l1.716 3.58 2.661-3.58h2.795l-4.081 4.836 3.016 5.386h-2.898l-1.966-4.115-3.076 4.115h-2.736l4.436-5.343ZM88.103 33.72h3.889c.542 0 1.047.047 1.514.144.469.097.866.262 1.191.499.326.237.566.553.725.953.158.4.192.903.103 1.51-.088.596-.262 1.097-.517 1.501a3.07 3.07 0 0 1-.955.968c-.38.24-.813.412-1.301.513a7.686 7.686 0 0 1-1.561.153h-1.686l-.562 3.985h-2.306L88.1 33.723l.002-.004Zm1.685 4.33h1.538c.207 0 .41-.018.606-.057.197-.04.38-.103.547-.196.167-.09.31-.217.43-.375.117-.16.191-.36.221-.6.04-.26.008-.47-.095-.628a1.03 1.03 0 0 0-.429-.369 1.852 1.852 0 0 0-.62-.165 6.341 6.341 0 0 0-.673-.035H90.13l-.34 2.426h-.002ZM97.418 33.72h4.052c.532 0 1.03.05 1.493.15.463.1.858.27 1.183.505.325.235.566.553.724.953.159.4.193.897.104 1.495-.108.722-.389 1.335-.843 1.84-.454.506-1.06.825-1.819.962l2.041 4.317h-2.765l-1.612-4.087h-1.138l-.577 4.087h-2.307l1.464-10.223Zm1.7 4.23h1.361c.207 0 .427-.009.659-.021.232-.014.446-.058.642-.13.197-.072.37-.186.518-.338.148-.155.24-.371.281-.65.04-.26.014-.466-.074-.62a.878.878 0 0 0-.37-.354 1.63 1.63 0 0 0-.553-.165 4.664 4.664 0 0 0-.628-.043h-1.508l-.325 2.325-.002-.004ZM107.089 33.72h7.112l-.296 2.078H109.1l-.281 1.906h4.539l-.296 2.08h-4.539l-.296 2.078h5.072l-.296 2.08h-7.378l1.464-10.223ZM121.136 36.217a1.373 1.373 0 0 0-.695-.511 2.589 2.589 0 0 0-.887-.168c-.167 0-.345.019-.533.058a2.14 2.14 0 0 0-.526.182c-.162.082-.302.19-.422.326a.95.95 0 0 0-.222.49c-.029.231.013.421.125.57.114.148.276.274.488.375.211.101.458.19.739.266.281.077.564.163.849.26.285.097.564.213.837.347.27.134.504.305.703.511.196.206.342.466.437.78.093.313.106.69.036 1.134a3.519 3.519 0 0 1-.541 1.487c-.28.423-.625.776-1.035 1.055a4.444 4.444 0 0 1-1.375.62 6.142 6.142 0 0 1-1.576.203c-.68 0-1.296-.102-1.848-.304a4.022 4.022 0 0 1-1.493-.982l1.907-1.761c.197.307.461.547.792.714.33.169.687.253 1.071.253.188 0 .381-.022.577-.066.196-.043.38-.109.547-.196.167-.086.308-.198.423-.332a.938.938 0 0 0 .213-.476c.048-.307-.036-.55-.258-.73a2.993 2.993 0 0 0-.851-.456 24.6 24.6 0 0 0-1.124-.376 4.664 4.664 0 0 1-1.109-.505 2.304 2.304 0 0 1-.792-.837c-.192-.347-.249-.805-.171-1.372.078-.549.26-1.03.541-1.444a3.827 3.827 0 0 1 1.041-1.04 4.656 4.656 0 0 1 1.375-.627 5.642 5.642 0 0 1 1.523-.208c.592 0 1.151.083 1.677.246.528.163.985.437 1.369.823l-1.819 1.689.007.002ZM129.623 36.217a1.365 1.365 0 0 0-.695-.511 2.589 2.589 0 0 0-.887-.168c-.167 0-.344.019-.532.058a2.14 2.14 0 0 0-.526.182c-.163.082-.302.19-.423.326a.94.94 0 0 0-.221.49c-.03.231.012.421.124.57.114.148.277.274.488.375.211.101.459.19.74.266.28.077.564.163.849.26.285.097.564.213.836.347.271.134.505.305.704.511.196.206.342.466.437.78.093.313.105.69.036 1.134a3.519 3.519 0 0 1-.541 1.487 3.802 3.802 0 0 1-1.035 1.055c-.41.278-.868.486-1.375.62a6.142 6.142 0 0 1-1.576.203 5.34 5.34 0 0 1-1.848-.304 4.026 4.026 0 0 1-1.494-.982l1.908-1.761c.196.307.46.547.792.714.329.169.686.253 1.071.253.188 0 .38-.022.577-.066.196-.043.38-.109.547-.196.166-.086.308-.198.422-.332a.93.93 0 0 0 .213-.476c.049-.307-.036-.55-.257-.73a2.986 2.986 0 0 0-.852-.456c-.344-.126-.72-.25-1.123-.376a4.646 4.646 0 0 1-1.109-.505 2.304 2.304 0 0 1-.792-.837c-.193-.347-.25-.805-.172-1.372.079-.549.26-1.03.541-1.444a3.83 3.83 0 0 1 1.042-1.04 4.656 4.656 0 0 1 1.375-.627 5.63 5.63 0 0 1 1.523-.208 5.64 5.64 0 0 1 1.677.246c.528.163.984.437 1.369.823l-1.819 1.689.006.002ZM67.794 35.817h7.14l.301-2.09h-7.138l-.303 2.09ZM65.082 39.822h7.138l.3-2.09h-7.137l-.301 2.09ZM66.623 43.992h7.14l.302-2.089h-7.14l-.302 2.09ZM32.757 35.218l-15.29 7.425 6.672 2.605 3.813 6.012 4.805-16.042Z" fill="#fff"/><path d="M47.77 17.689h-4.766a.21.21 0 0 0-.212.207v2.95h-3.209v-2.95a.21.21 0 0 0-.212-.207H34.1a.21.21 0 0 0-.211.207v2.95h-3.21v-2.95a.21.21 0 0 0-.211-.207h-4.765a.21.21 0 0 0-.212.207V23.4c0 .149.055.294.157.408l1.272 1.426c.119.135.174.311.15.487l-1.492 11.364 9.127-4.431c.165-.08.35.07.297.244l-1.45 4.846h14.434l-1.58-12.02a.61.61 0 0 1 .151-.488l1.273-1.426a.612.612 0 0 0 .156-.408v-5.504a.21.21 0 0 0-.212-.207l-.004-.002Z" fill="#fff"/><path d="m27.952 51.257 4.803-16.04-15.288 7.426 5.202 2.033-4.532 5.275a.375.375 0 0 0 .05.536l1.742 1.429a.397.397 0 0 0 .55-.048l4.52-5.262 2.953 4.651Z" fill="#fff"/><path d="M36.655 7.633c-11.41 0-20.657 9.03-20.657 20.171 0 4.483 1.5 8.625 4.033 11.975l3.773-1.832c-2.297-2.771-3.675-6.3-3.675-10.143 0-8.912 7.399-16.137 16.526-16.137 9.127 0 16.526 7.225 16.526 16.137 0 8.913-7.399 16.137-16.526 16.137-1.656 0-3.253-.24-4.76-.683l-1.16 3.874c1.876.547 3.863.843 5.92.843 11.409 0 20.657-9.03 20.657-20.17 0-11.141-9.248-20.172-20.657-20.172ZM54.748 44.63h.674c.052 0 .124.003.215.01a.85.85 0 0 1 .269.063.587.587 0 0 1 .23.172c.065.076.097.184.097.327 0 .09-.013.166-.039.226a.433.433 0 0 1-.244.231.73.73 0 0 1-.161.037l.488.702h-.513l-.435-.68h-.083v.68h-.498V44.63Zm.493.735h.2c.03 0 .061-.002.093-.005a.33.33 0 0 0 .098-.022.182.182 0 0 0 .074-.055.183.183 0 0 0 .029-.109c0-.045-.01-.08-.03-.104a.168.168 0 0 0-.073-.059.326.326 0 0 0-.097-.023 1.012 1.012 0 0 0-.093-.004h-.2v.38Zm-1.612.167c0-.232.047-.45.141-.652.098-.206.228-.384.391-.535.166-.154.359-.275.577-.363.221-.09.458-.136.709-.136.25 0 .485.046.703.136.222.088.414.209.577.363.166.15.296.33.39.535.099.202.148.42.148.652 0 .233-.05.452-.147.658-.095.202-.225.38-.391.535a1.87 1.87 0 0 1-1.28.494c-.251 0-.487-.044-.709-.132a1.974 1.974 0 0 1-.577-.362 1.82 1.82 0 0 1-.39-.535 1.555 1.555 0 0 1-.142-.657Zm.498 0a1.236 1.236 0 0 0 .386.903 1.32 1.32 0 0 0 .933.376 1.32 1.32 0 0 0 .934-.376 1.236 1.236 0 0 0 .386-.902 1.24 1.24 0 0 0-.386-.902 1.363 1.363 0 0 0-.42-.273c-.16-.07-.331-.104-.513-.104-.183 0-.354.035-.514.104-.16.067-.3.158-.42.272a1.24 1.24 0 0 0-.386.902ZM78.081 16.302a3.966 3.966 0 0 0-1.467-1.09c-.58-.254-1.249-.38-2.01-.38a5.19 5.19 0 0 0-2.116.43 5.082 5.082 0 0 0-1.687 1.203 5.565 5.565 0 0 0-1.115 1.837 6.45 6.45 0 0 0-.403 2.305c0 .827.134 1.619.403 2.32.268.7.635 1.308 1.103 1.825a5.01 5.01 0 0 0 1.647 1.203c.63.287 1.31.43 2.036.43.83 0 1.564-.17 2.206-.507a4.351 4.351 0 0 0 1.583-1.418l3.372 2.458a6.987 6.987 0 0 1-2.957 2.356 9.348 9.348 0 0 1-3.686.76c-1.435 0-2.76-.218-3.969-.659-1.21-.438-2.256-1.068-3.139-1.887a8.506 8.506 0 0 1-2.062-2.976c-.493-1.166-.738-2.466-.738-3.903 0-1.436.245-2.737.738-3.902a8.561 8.561 0 0 1 2.062-2.977c.883-.819 1.929-1.449 3.14-1.887 1.21-.438 2.533-.66 3.968-.66.52 0 1.059.048 1.622.139.561.093 1.116.24 1.662.444a7.623 7.623 0 0 1 1.57.81c.502.34.95.753 1.349 1.243l-3.114 2.482h.002ZM87.916 15.136h-5.241V11.64h14.53v3.498h-5.242v14.44h-4.047V15.136ZM99.203 11.64h4.048v17.938h-4.048V11.64ZM118.43 16.301a3.966 3.966 0 0 0-1.467-1.089c-.58-.254-1.249-.38-2.011-.38s-1.467.144-2.114.43a5.074 5.074 0 0 0-1.687 1.203 5.558 5.558 0 0 0-1.116 1.837 6.447 6.447 0 0 0-.402 2.305c0 .827.133 1.619.402 2.32a5.76 5.76 0 0 0 1.103 1.825 5.009 5.009 0 0 0 1.647 1.203c.631.287 1.31.43 2.036.43.83 0 1.565-.17 2.206-.507a4.353 4.353 0 0 0 1.583-1.418l3.372 2.458a6.986 6.986 0 0 1-2.957 2.356 9.347 9.347 0 0 1-3.685.76c-1.435 0-2.761-.218-3.969-.659-1.211-.438-2.257-1.068-3.14-1.887a8.56 8.56 0 0 1-2.064-2.976c-.493-1.166-.738-2.466-.738-3.903 0-1.437.245-2.737.738-3.902a8.559 8.559 0 0 1 2.064-2.977c.883-.819 1.929-1.449 3.14-1.887 1.211-.438 2.534-.66 3.969-.66.518 0 1.058.048 1.621.139.561.093 1.116.24 1.66.444a7.693 7.693 0 0 1 1.571.81c.501.34.95.753 1.348 1.243l-3.114 2.482h.004Z" fill="#fff"/></svg>