<svg width="1010" height="1110" viewBox="0 0 1010 1110" fill="none" xmlns="http://www.w3.org/2000/svg">
<path d="M776.079 251.539H659.682C656.833 251.539 654.502 253.87 654.502 256.719V330.536H576.127V256.719C576.127 253.87 573.796 251.539 570.947 251.539H442.17C439.321 251.539 436.99 253.87 436.99 256.719V330.536H358.615V256.719C358.615 253.87 356.284 251.539 353.435 251.539H237.038C234.189 251.539 231.858 253.87 231.858 256.719V394.406C231.858 398.136 233.205 401.762 235.692 404.611L266.772 440.302C269.673 443.669 271.02 448.072 270.45 452.475L233.982 736.758L456.933 625.904C460.974 623.884 465.48 627.666 464.185 632.017L428.754 753.231H781.362L742.771 452.527C742.201 448.124 743.548 443.669 746.449 440.354L777.529 404.663C780.016 401.814 781.362 398.188 781.362 394.458V256.771C781.362 253.922 779.031 251.591 776.182 251.591L776.079 251.539Z" fill="#FFCD34"></path>
<path d="M292 1091.28L409.329 690.03L35.8967 875.788L162.964 926.656L52.2658 1058.59C48.8988 1062.63 49.4168 1068.64 53.4572 1072.01L96.0376 1107.75C100.078 1111.12 106.087 1110.6 109.454 1106.56L219.894 974.935L292 1091.28V1091.28Z" fill="#231F20"></path>
<path d="M504.593 0C225.904 0 0 225.904 0 504.593C0 616.742 36.6232 720.343 98.5253 804.157L190.679 758.314C134.579 689.004 100.908 600.735 100.908 504.593C100.908 281.642 281.642 100.908 504.593 100.908C727.544 100.908 908.277 281.642 908.277 504.593C908.277 727.544 727.544 908.277 504.593 908.277C464.136 908.277 425.13 902.268 388.3 891.183L359.965 988.102C405.808 1001.78 454.346 1009.19 504.593 1009.19C783.282 1009.19 1009.19 783.282 1009.19 504.593C1009.19 225.904 783.282 0 504.593 0Z" fill="#FFCD34"></path>
<path d="M946.55 925.515H963.023C964.297 925.515 966.047 925.591 968.276 925.742C970.504 925.893 972.692 926.423 974.841 927.33C976.99 928.237 978.86 929.673 980.452 931.639C982.043 933.529 982.839 936.251 982.839 939.804C982.839 942.072 982.521 943.962 981.884 945.474C981.247 946.911 980.412 948.12 979.377 949.103C978.422 950.011 977.268 950.729 975.915 951.258C974.642 951.712 973.329 952.014 971.976 952.165L983.913 969.743H971.379L960.755 952.732H958.726V969.743H946.55V925.515ZM958.606 943.887H963.501C964.217 943.887 964.973 943.849 965.769 943.773C966.644 943.698 967.44 943.509 968.156 943.206C968.872 942.904 969.469 942.45 969.947 941.845C970.424 941.165 970.663 940.258 970.663 939.124C970.663 937.99 970.424 937.12 969.947 936.515C969.469 935.835 968.872 935.344 968.156 935.041C967.44 934.739 966.644 934.55 965.769 934.474C964.973 934.399 964.217 934.361 963.501 934.361H958.606V943.887ZM919.214 948.083C919.214 942.261 920.368 936.818 922.675 931.753C925.063 926.612 928.246 922.151 932.225 918.371C936.284 914.515 940.979 911.491 946.311 909.299C951.723 907.031 957.492 905.896 963.62 905.896C969.748 905.896 975.478 907.031 980.81 909.299C986.221 911.491 990.917 914.515 994.896 918.371C998.954 922.151 1002.14 926.612 1004.45 931.753C1006.83 936.818 1008.03 942.261 1008.03 948.083C1008.03 953.904 1006.83 959.385 1004.45 964.526C1002.14 969.592 998.954 974.052 994.896 977.908C990.917 981.688 986.221 984.712 980.81 986.98C975.478 989.173 969.748 990.269 963.62 990.269C957.492 990.269 951.723 989.173 946.311 986.98C940.979 984.712 936.284 981.688 932.225 977.908C928.246 974.052 925.063 969.592 922.675 964.526C920.368 959.385 919.214 953.904 919.214 948.083ZM931.39 948.083C931.39 952.468 932.225 956.626 933.896 960.557C935.568 964.413 937.875 967.777 940.82 970.65C943.765 973.523 947.187 975.829 951.086 977.568C954.986 979.231 959.164 980.062 963.62 980.062C968.077 980.062 972.255 979.231 976.154 977.568C980.054 975.829 983.476 973.523 986.42 970.65C989.365 967.777 991.673 964.413 993.344 960.557C995.015 956.626 995.851 952.468 995.851 948.083C995.851 943.698 995.015 939.577 993.344 935.722C991.673 931.79 989.365 928.388 986.42 925.515C983.476 922.642 980.054 920.374 976.154 918.711C972.255 916.972 968.077 916.103 963.62 916.103C959.164 916.103 954.986 916.972 951.086 918.711C947.187 920.374 943.765 922.642 940.82 925.515C937.875 928.388 935.568 931.79 933.896 935.722C932.225 939.577 931.39 943.698 931.39 948.083Z" fill="#231F20"></path>
<path d="M522.851 518.54L515.049 504.439H523.226L528.066 514.785L535.576 504.439H543.461L531.946 518.415L540.457 533.977H532.28L526.731 522.087L518.053 533.977H510.334L522.851 518.54Z" fill="#231F20"></path>
<path d="M547.592 504.439H558.565C560.097 504.439 561.521 504.576 562.839 504.856C564.162 505.136 565.282 505.613 566.2 506.298C567.118 506.984 567.797 507.895 568.244 509.052C568.691 510.208 568.787 511.662 568.537 513.415C568.286 515.137 567.797 516.585 567.076 517.754C566.355 518.922 565.455 519.852 564.382 520.549C563.309 521.246 562.088 521.741 560.711 522.033C559.334 522.325 557.868 522.474 556.306 522.474H551.55L549.965 533.989H543.456L547.586 504.45L547.592 504.439ZM552.349 516.955H556.688C557.272 516.955 557.844 516.901 558.398 516.788C558.953 516.675 559.471 516.49 559.942 516.222C560.413 515.96 560.818 515.596 561.152 515.137C561.486 514.678 561.694 514.1 561.778 513.403C561.891 512.652 561.802 512.044 561.509 511.591C561.217 511.132 560.812 510.774 560.3 510.524C559.787 510.274 559.203 510.113 558.547 510.047C557.892 509.976 557.26 509.946 556.652 509.946H553.314L552.355 516.955H552.349Z" fill="#231F20"></path>
<path d="M573.876 504.439H585.308C586.81 504.439 588.217 504.588 589.522 504.874C590.827 505.166 591.942 505.654 592.86 506.334C593.778 507.013 594.457 507.931 594.904 509.087C595.351 510.244 595.446 511.68 595.196 513.409C594.892 515.495 594.099 517.265 592.818 518.725C591.537 520.185 589.826 521.109 587.686 521.503L593.444 533.977H585.642L581.094 522.17H577.882L576.255 533.977H569.746L573.876 504.439ZM578.674 516.663H582.513C583.097 516.663 583.717 516.639 584.372 516.603C585.028 516.562 585.63 516.436 586.184 516.228C586.739 516.019 587.227 515.691 587.645 515.25C588.062 514.803 588.324 514.177 588.437 513.373C588.55 512.622 588.479 512.026 588.229 511.579C587.978 511.132 587.633 510.792 587.186 510.56C586.739 510.321 586.22 510.16 585.624 510.083C585.028 509.999 584.432 509.958 583.854 509.958H579.598L578.68 516.675L578.674 516.663Z" fill="#231F20"></path>
<path d="M601.163 504.439H621.231L620.396 510.446H606.837L606.044 515.954H618.852L618.018 521.961H605.21L604.375 527.969H618.686L617.851 533.977H597.032L601.163 504.439Z" fill="#231F20"></path>
<path d="M640.798 511.655C640.351 510.988 639.701 510.493 638.837 510.177C637.973 509.855 637.138 509.695 636.334 509.695C635.863 509.695 635.362 509.748 634.832 509.861C634.301 509.975 633.813 510.148 633.348 510.386C632.889 510.624 632.495 510.934 632.156 511.328C631.822 511.715 631.613 512.192 631.53 512.746C631.446 513.414 631.566 513.962 631.882 514.391C632.203 514.82 632.662 515.184 633.258 515.476C633.854 515.768 634.552 516.024 635.344 516.245C636.137 516.465 636.936 516.716 637.74 516.996C638.545 517.276 639.332 517.61 640.101 517.997C640.864 518.384 641.525 518.879 642.085 519.475C642.64 520.071 643.051 520.822 643.319 521.728C643.581 522.634 643.617 523.725 643.42 525.006C643.2 526.645 642.687 528.082 641.895 529.304C641.102 530.525 640.13 531.545 638.974 532.349C637.818 533.154 636.524 533.756 635.094 534.143C633.664 534.531 632.18 534.727 630.648 534.727C628.729 534.727 626.988 534.435 625.433 533.851C623.877 533.267 622.47 532.319 621.219 531.014L626.601 525.924C627.155 526.812 627.9 527.504 628.836 527.986C629.766 528.475 630.773 528.719 631.858 528.719C632.388 528.719 632.931 528.654 633.485 528.529C634.039 528.404 634.558 528.213 635.028 527.963C635.499 527.712 635.899 527.39 636.221 527.003C636.542 526.616 636.745 526.157 636.823 525.626C636.96 524.738 636.721 524.035 636.095 523.516C635.47 523.004 634.671 522.563 633.693 522.199C632.722 521.835 631.661 521.478 630.523 521.114C629.384 520.751 628.341 520.268 627.394 519.654C626.446 519.04 625.707 518.235 625.158 517.234C624.616 516.233 624.455 514.91 624.676 513.271C624.896 511.685 625.409 510.297 626.201 509.099C626.994 507.901 627.972 506.899 629.14 506.095C630.308 505.29 631.601 504.682 633.02 504.283C634.438 503.877 635.869 503.681 637.317 503.681C638.986 503.681 640.566 503.919 642.05 504.39C643.54 504.861 644.827 505.654 645.912 506.768L640.78 511.649L640.798 511.655Z" fill="#231F20"></path>
<path d="M664.747 511.655C664.3 510.988 663.65 510.493 662.786 510.177C661.922 509.855 661.088 509.695 660.283 509.695C659.812 509.695 659.311 509.748 658.781 509.861C658.251 509.975 657.762 510.148 657.297 510.386C656.838 510.624 656.445 510.934 656.105 511.328C655.771 511.715 655.563 512.192 655.479 512.746C655.396 513.414 655.515 513.962 655.831 514.391C656.153 514.82 656.612 515.184 657.208 515.476C657.804 515.768 658.501 516.024 659.294 516.245C660.086 516.465 660.885 516.716 661.69 516.996C662.494 517.276 663.281 517.61 664.05 517.997C664.813 518.384 665.474 518.879 666.035 519.475C666.589 520.071 667 520.822 667.268 521.728C667.531 522.634 667.566 523.725 667.37 525.006C667.149 526.645 666.637 528.082 665.844 529.304C665.051 530.525 664.08 531.545 662.923 532.349C661.767 533.154 660.474 533.756 659.043 534.143C657.613 534.531 656.129 534.727 654.597 534.727C652.678 534.727 650.937 534.435 649.382 533.851C647.826 533.267 646.42 532.319 645.168 531.014L650.55 525.924C651.104 526.812 651.849 527.504 652.785 527.986C653.715 528.475 654.722 528.719 655.807 528.719C656.337 528.719 656.88 528.654 657.434 528.529C657.988 528.404 658.507 528.213 658.978 527.963C659.449 527.712 659.848 527.39 660.17 527.003C660.492 526.616 660.694 526.157 660.772 525.626C660.909 524.738 660.67 524.035 660.045 523.516C659.419 523.004 658.62 522.563 657.643 522.199C656.671 521.835 655.61 521.478 654.472 521.114C653.333 520.751 652.29 520.268 651.343 519.654C650.395 519.04 649.656 518.235 649.108 517.234C648.565 516.233 648.404 514.91 648.625 513.271C648.845 511.685 649.358 510.297 650.151 509.099C650.943 507.901 651.921 506.899 653.089 506.095C654.257 505.29 655.551 504.682 656.969 504.283C658.388 503.877 659.818 503.681 661.266 503.681C662.935 503.681 664.515 503.919 665.999 504.39C667.489 504.861 668.776 505.654 669.861 506.768L664.729 511.649L664.747 511.655Z" fill="#231F20"></path>
<path d="M490.289 510.497H510.435L511.285 504.459H491.144L490.289 510.497Z" fill="#231F20"></path>
<path d="M482.635 522.069H502.776L503.626 516.031H483.485L482.635 522.069Z" fill="#231F20"></path>
<path d="M486.985 534.12H507.132L507.982 528.083H487.835L486.985 534.12Z" fill="#231F20"></path>
<path d="M391.428 508.763L348.286 530.22L367.11 537.747L377.869 555.118L391.428 508.763Z" fill="#231F20"></path>
<path d="M433.786 458.113H420.341C420.012 458.113 419.742 458.382 419.742 458.711V467.238H410.689V458.711C410.689 458.382 410.42 458.113 410.091 458.113H395.216C394.886 458.113 394.617 458.382 394.617 458.711V467.238H385.564V458.711C385.564 458.382 385.295 458.113 384.966 458.113H371.52C371.191 458.113 370.922 458.382 370.922 458.711V474.616C370.922 475.047 371.078 475.466 371.365 475.795L374.955 479.917C375.29 480.306 375.446 480.815 375.38 481.324L371.167 514.162L396.921 501.357C397.388 501.123 397.908 501.56 397.759 502.063L393.666 516.064H434.396L429.938 481.33C429.873 480.821 430.028 480.306 430.363 479.923L433.953 475.801C434.241 475.472 434.396 475.053 434.396 474.622V458.717C434.396 458.388 434.127 458.119 433.798 458.119L433.786 458.113Z" fill="#231F20"></path>
<path d="M377.869 555.112L391.422 508.763L348.286 530.22L362.964 536.096L350.177 551.336C349.788 551.803 349.848 552.497 350.315 552.886L355.233 557.015C355.7 557.404 356.394 557.344 356.783 556.877L369.54 541.673L377.869 555.112Z" fill="#231F20"></path>
<path d="M402.426 429.057C370.234 429.057 344.14 455.152 344.14 487.344C344.14 500.298 348.37 512.265 355.52 521.947L366.165 516.651C359.685 508.645 355.796 498.449 355.796 487.344C355.796 461.59 376.673 440.713 402.426 440.713C428.179 440.713 449.056 461.59 449.056 487.344C449.056 513.097 428.179 533.974 402.426 533.974C397.753 533.974 393.247 533.28 388.993 531.999L385.72 543.195C391.015 544.774 396.622 545.63 402.426 545.63C434.618 545.63 460.712 519.535 460.712 487.344C460.712 455.152 434.618 429.057 402.426 429.057Z" fill="#231F20"></path>
<path d="M453.478 535.965H455.381C455.528 535.965 455.73 535.974 455.987 535.991C456.245 536.009 456.497 536.07 456.746 536.175C456.994 536.279 457.21 536.445 457.394 536.672C457.578 536.891 457.67 537.205 457.67 537.616C457.67 537.878 457.633 538.096 457.559 538.271C457.486 538.437 457.389 538.576 457.27 538.69C457.159 538.795 457.026 538.878 456.87 538.939C456.723 538.991 456.571 539.026 456.415 539.043L457.794 541.074H456.346L455.119 539.109H454.884V541.074H453.478V535.965ZM454.87 538.087H455.436C455.518 538.087 455.606 538.083 455.698 538.074C455.799 538.065 455.891 538.044 455.974 538.009C456.056 537.974 456.125 537.921 456.18 537.851C456.236 537.773 456.263 537.668 456.263 537.537C456.263 537.406 456.236 537.306 456.18 537.236C456.125 537.157 456.056 537.1 455.974 537.065C455.891 537.031 455.799 537.009 455.698 537C455.606 536.991 455.518 536.987 455.436 536.987H454.87V538.087ZM450.32 538.572C450.32 537.899 450.453 537.271 450.72 536.686C450.996 536.092 451.363 535.576 451.823 535.14C452.292 534.694 452.834 534.345 453.45 534.092C454.075 533.83 454.742 533.699 455.45 533.699C456.157 533.699 456.819 533.83 457.435 534.092C458.06 534.345 458.603 534.694 459.062 535.14C459.531 535.576 459.899 536.092 460.165 536.686C460.441 537.271 460.579 537.899 460.579 538.572C460.579 539.244 460.441 539.877 460.165 540.471C459.899 541.056 459.531 541.572 459.062 542.017C458.603 542.454 458.06 542.803 457.435 543.065C456.819 543.318 456.157 543.445 455.45 543.445C454.742 543.445 454.075 543.318 453.45 543.065C452.834 542.803 452.292 542.454 451.823 542.017C451.363 541.572 450.996 541.056 450.72 540.471C450.453 539.877 450.32 539.244 450.32 538.572ZM451.727 538.572C451.727 539.078 451.823 539.559 452.016 540.013C452.209 540.458 452.476 540.847 452.816 541.179C453.156 541.511 453.551 541.777 454.002 541.978C454.452 542.17 454.935 542.266 455.45 542.266C455.964 542.266 456.447 542.17 456.897 541.978C457.348 541.777 457.743 541.511 458.083 541.179C458.423 540.847 458.69 540.458 458.883 540.013C459.076 539.559 459.173 539.078 459.173 538.572C459.173 538.065 459.076 537.589 458.883 537.144C458.69 536.69 458.423 536.297 458.083 535.965C457.743 535.633 457.348 535.371 456.897 535.179C456.447 534.978 455.964 534.878 455.45 534.878C454.935 534.878 454.452 534.978 454.002 535.179C453.551 535.371 453.156 535.633 452.816 535.965C452.476 536.297 452.209 536.69 452.016 537.144C451.823 537.589 451.727 538.065 451.727 538.572Z" fill="#231F20"></path>
<path d="M519.315 454.105C518.192 452.737 516.812 451.692 515.176 450.958C513.539 450.223 511.652 449.858 509.501 449.858C507.351 449.858 505.362 450.277 503.534 451.101C501.707 451.931 500.118 453.09 498.774 454.577C497.43 456.064 496.385 457.832 495.626 459.887C494.868 461.936 494.491 464.158 494.491 466.547C494.491 468.936 494.868 471.224 495.626 473.248C496.385 475.273 497.418 477.029 498.738 478.523C500.058 480.01 501.605 481.169 503.385 481.999C505.165 482.829 507.082 483.241 509.131 483.241C511.472 483.241 513.545 482.751 515.355 481.778C517.159 480.804 518.652 479.436 519.822 477.68L529.337 484.782C527.139 487.858 524.362 490.128 520.993 491.591C517.624 493.055 514.16 493.789 510.594 493.789C506.545 493.789 502.806 493.156 499.395 491.884C495.979 490.618 493.028 488.796 490.537 486.431C488.046 484.065 486.105 481.198 484.72 477.83C483.328 474.461 482.635 470.704 482.635 466.553C482.635 462.402 483.328 458.645 484.72 455.276C486.111 451.907 488.052 449.04 490.537 446.675C493.028 444.31 495.979 442.488 499.395 441.222C502.812 439.955 506.545 439.316 510.594 439.316C512.058 439.316 513.581 439.454 515.17 439.716C516.752 439.985 518.317 440.409 519.858 441.001C521.399 441.592 522.869 442.368 524.29 443.342C525.706 444.322 526.972 445.516 528.095 446.932L519.309 454.105H519.315Z" fill="#231F20"></path>
<path d="M547.065 450.736H532.276V440.635H573.275V450.742H558.486V492.469H547.065V450.736Z" fill="#231F20"></path>
<path d="M578.913 440.635H590.333V492.469H578.913V440.635Z" fill="#231F20"></path>
<path d="M633.165 454.105C632.042 452.737 630.662 451.692 629.026 450.957C627.389 450.223 625.501 449.858 623.351 449.858C621.201 449.858 619.212 450.276 617.384 451.101C615.557 451.931 613.968 453.09 612.624 454.577C611.28 456.064 610.235 457.832 609.476 459.887C608.718 461.936 608.341 464.158 608.341 466.547C608.341 468.936 608.718 471.224 609.476 473.248C610.235 475.273 611.268 477.029 612.588 478.522C613.908 480.01 615.455 481.168 617.235 481.999C619.015 482.829 620.932 483.241 622.981 483.241C625.322 483.241 627.395 482.751 629.205 481.778C631.009 480.804 632.502 479.436 633.672 477.68L643.187 484.782C640.989 487.858 638.212 490.128 634.843 491.591C631.474 493.055 628.01 493.789 624.444 493.789C620.395 493.789 616.656 493.156 613.245 491.884C609.829 490.618 606.878 488.796 604.387 486.431C601.896 484.065 599.955 481.198 598.564 477.83C597.172 474.461 596.479 470.704 596.479 466.553C596.479 462.401 597.172 458.645 598.564 455.276C599.955 451.907 601.896 449.04 604.387 446.675C606.878 444.309 609.829 442.488 613.245 441.221C616.662 439.955 620.395 439.316 624.444 439.316C625.908 439.316 627.431 439.453 629.02 439.716C630.602 439.985 632.167 440.409 633.702 441C635.237 441.592 636.713 442.368 638.134 443.342C639.55 444.321 640.816 445.516 641.939 446.932L633.153 454.105H633.165Z" fill="#231F20"></path>
<path d="M355.34 575.846C355.34 576.636 355.24 577.356 355.039 578.006C354.842 578.651 354.545 579.207 354.148 579.675C353.751 580.138 353.253 580.495 352.654 580.748C352.056 581 351.355 581.127 350.55 581.127C349.732 581.127 349.022 581 348.418 580.748C347.82 580.495 347.322 580.135 346.925 579.668C346.532 579.2 346.237 578.642 346.041 577.992C345.845 577.342 345.747 576.622 345.747 575.832C345.747 574.775 345.919 573.854 346.265 573.069C346.616 572.279 347.147 571.666 347.857 571.231C348.573 570.792 349.475 570.572 350.564 570.572C351.63 570.572 352.516 570.79 353.222 571.224C353.928 571.659 354.457 572.272 354.807 573.062C355.163 573.847 355.34 574.775 355.34 575.846ZM347.514 575.846C347.514 576.636 347.621 577.321 347.836 577.901C348.051 578.476 348.381 578.92 348.825 579.233C349.274 579.542 349.849 579.696 350.55 579.696C351.256 579.696 351.831 579.542 352.276 579.233C352.72 578.92 353.047 578.476 353.257 577.901C353.468 577.321 353.573 576.636 353.573 575.846C353.573 574.644 353.332 573.705 352.851 573.027C352.374 572.344 351.612 572.003 350.564 572.003C349.863 572.003 349.286 572.157 348.832 572.466C348.383 572.774 348.051 573.216 347.836 573.791C347.621 574.361 347.514 575.046 347.514 575.846ZM366.385 580.986H364.317L359.295 572.802H359.232C359.251 573.078 359.267 573.37 359.281 573.679C359.3 573.987 359.314 574.305 359.323 574.633C359.337 574.96 359.349 575.292 359.358 575.628V580.986H357.83V570.733H359.884L364.899 578.861H364.948C364.938 578.623 364.927 578.349 364.913 578.041C364.899 577.732 364.885 577.414 364.871 577.087C364.861 576.755 364.854 576.435 364.849 576.126V570.733H366.385V580.986ZM369.366 580.986V570.733H371.049V579.556H375.404V580.986H369.366ZM377.465 580.986V570.733H379.148V580.986H377.465ZM390.698 580.986H388.63L383.608 572.802H383.545C383.564 573.078 383.58 573.37 383.594 573.679C383.613 573.987 383.627 574.305 383.636 574.633C383.65 574.96 383.662 575.292 383.671 575.628V580.986H382.143V570.733H384.197L389.212 578.861H389.261C389.251 578.623 389.24 578.349 389.226 578.041C389.212 577.732 389.198 577.414 389.184 577.087C389.174 576.755 389.167 576.435 389.163 576.126V570.733H390.698V580.986ZM399.485 580.986H393.679V570.733H399.485V572.15H395.362V574.934H399.226V576.344H395.362V579.563H399.485V580.986ZM409.562 580.986H407.872V572.164H404.871V570.733H412.557V572.164H409.562V580.986ZM414.415 580.986V570.733H416.098V580.986H414.415ZM422.648 580.986H420.958V572.164H417.956V570.733H425.642V572.164H422.648V580.986ZM427.501 580.986V570.733H429.184V579.556H433.539V580.986H427.501ZM441.407 580.986H435.6V570.733H441.407V572.15H437.283V574.934H441.148V576.344H437.283V579.563H441.407V580.986ZM447.929 580.986V570.733H449.612V580.986H447.929ZM461.162 580.986H459.093L454.072 572.802H454.008C454.027 573.078 454.044 573.37 454.058 573.679C454.076 573.987 454.09 574.305 454.1 574.633C454.114 574.96 454.125 575.292 454.135 575.628V580.986H452.606V570.733H454.661L459.675 578.861H459.724C459.715 578.623 459.703 578.349 459.689 578.041C459.675 577.732 459.661 577.414 459.647 577.087C459.638 576.755 459.631 576.435 459.626 576.126V570.733H461.162V580.986ZM470.061 578.195C470.061 578.803 469.911 579.327 469.612 579.766C469.317 580.206 468.892 580.542 468.336 580.776C467.784 581.01 467.125 581.127 466.358 581.127C465.984 581.127 465.626 581.106 465.285 581.063C464.944 581.021 464.621 580.961 464.317 580.881C464.018 580.797 463.744 580.696 463.497 580.58V578.995C463.913 579.177 464.378 579.343 464.892 579.493C465.407 579.638 465.93 579.71 466.463 579.71C466.898 579.71 467.258 579.654 467.543 579.542C467.833 579.425 468.048 579.261 468.188 579.051C468.329 578.836 468.399 578.586 468.399 578.3C468.399 577.996 468.317 577.739 468.153 577.529C467.99 577.319 467.742 577.127 467.41 576.954C467.083 576.776 466.671 576.587 466.176 576.386C465.839 576.25 465.516 576.096 465.208 575.923C464.904 575.75 464.633 575.547 464.394 575.313C464.156 575.079 463.967 574.803 463.826 574.485C463.691 574.163 463.623 573.784 463.623 573.349C463.623 572.769 463.761 572.274 464.037 571.862C464.317 571.451 464.71 571.135 465.215 570.916C465.724 570.696 466.318 570.586 466.996 570.586C467.534 570.586 468.039 570.642 468.511 570.754C468.988 570.867 469.455 571.026 469.914 571.231L469.381 572.585C468.96 572.412 468.551 572.274 468.153 572.171C467.761 572.068 467.359 572.017 466.947 572.017C466.592 572.017 466.29 572.071 466.042 572.178C465.795 572.286 465.605 572.438 465.474 572.634C465.348 572.826 465.285 573.055 465.285 573.321C465.285 573.62 465.357 573.873 465.502 574.079C465.652 574.28 465.881 574.464 466.19 574.633C466.503 574.801 466.905 574.988 467.396 575.194C467.962 575.427 468.441 575.673 468.834 575.93C469.231 576.187 469.535 576.496 469.745 576.856C469.956 577.211 470.061 577.658 470.061 578.195ZM480.377 570.733V577.368C480.377 578.083 480.225 578.723 479.921 579.289C479.622 579.855 479.168 580.304 478.56 580.636C477.952 580.963 477.188 581.127 476.267 581.127C474.953 581.127 473.953 580.783 473.265 580.096C472.583 579.404 472.242 578.485 472.242 577.34V570.733H473.925V577.192C473.925 578.048 474.126 578.679 474.528 579.086C474.93 579.493 475.531 579.696 476.33 579.696C476.882 579.696 477.331 579.6 477.677 579.408C478.027 579.212 478.284 578.927 478.448 578.553C478.616 578.174 478.7 577.718 478.7 577.185V570.733H480.377ZM486.169 570.733C487.053 570.733 487.782 570.841 488.357 571.056C488.937 571.271 489.367 571.598 489.647 572.038C489.933 572.477 490.075 573.036 490.075 573.714C490.075 574.219 489.982 574.649 489.795 575.004C489.608 575.36 489.362 575.654 489.058 575.888C488.754 576.122 488.429 576.309 488.084 576.449L490.994 580.986H489.093L486.618 576.877H484.97V580.986H483.287V570.733H486.169ZM486.057 572.136H484.97V575.488H486.134C486.915 575.488 487.48 575.343 487.831 575.053C488.186 574.764 488.364 574.336 488.364 573.77C488.364 573.176 488.175 572.755 487.796 572.508C487.422 572.26 486.842 572.136 486.057 572.136ZM499.101 580.986L498.098 578.139H494.178L493.175 580.986H491.4L495.215 570.691H497.081L500.889 580.986H499.101ZM497.663 576.694L496.688 573.889C496.651 573.768 496.597 573.597 496.527 573.377C496.457 573.153 496.387 572.926 496.316 572.697C496.246 572.463 496.188 572.267 496.141 572.108C496.094 572.3 496.036 572.515 495.966 572.753C495.9 572.987 495.835 573.207 495.769 573.412C495.709 573.618 495.662 573.777 495.629 573.889L494.647 576.694H497.663ZM511.085 580.986H509.017L503.995 572.802H503.932C503.951 573.078 503.967 573.37 503.981 573.679C504 573.987 504.014 574.305 504.023 574.633C504.037 574.96 504.049 575.292 504.058 575.628V580.986H502.53V570.733H504.584L509.599 578.861H509.648C509.638 578.623 509.627 578.349 509.613 578.041C509.599 577.732 509.585 577.414 509.571 577.087C509.561 576.755 509.554 576.435 509.55 576.126V570.733H511.085V580.986ZM518.435 572.017C517.944 572.017 517.504 572.106 517.116 572.283C516.733 572.461 516.408 572.718 516.141 573.055C515.875 573.387 515.672 573.791 515.531 574.268C515.391 574.74 515.321 575.273 515.321 575.867C515.321 576.662 515.433 577.347 515.658 577.922C515.882 578.492 516.223 578.932 516.681 579.24C517.14 579.544 517.719 579.696 518.421 579.696C518.855 579.696 519.279 579.654 519.69 579.57C520.101 579.486 520.527 579.371 520.966 579.226V580.657C520.55 580.82 520.13 580.94 519.704 581.014C519.279 581.089 518.788 581.127 518.231 581.127C517.184 581.127 516.314 580.909 515.623 580.474C514.935 580.04 514.421 579.427 514.08 578.637C513.743 577.847 513.575 576.921 513.575 575.86C513.575 575.084 513.682 574.373 513.897 573.728C514.112 573.083 514.426 572.526 514.837 572.059C515.248 571.587 515.756 571.224 516.359 570.972C516.967 570.715 517.661 570.586 518.442 570.586C518.956 570.586 519.461 570.645 519.957 570.761C520.457 570.874 520.92 571.035 521.345 571.245L520.756 572.634C520.401 572.466 520.029 572.321 519.641 572.199C519.253 572.078 518.851 572.017 518.435 572.017ZM529.262 580.986H523.456V570.733H529.262V572.15H525.139V574.934H529.003V576.344H525.139V579.563H529.262V580.986ZM544.887 575.846C544.887 576.636 544.786 577.356 544.585 578.006C544.389 578.651 544.092 579.207 543.695 579.675C543.297 580.138 542.799 580.495 542.201 580.748C541.602 581 540.901 581.127 540.097 581.127C539.279 581.127 538.568 581 537.965 580.748C537.366 580.495 536.869 580.135 536.471 579.668C536.078 579.2 535.784 578.642 535.588 577.992C535.391 577.342 535.293 576.622 535.293 575.832C535.293 574.775 535.466 573.854 535.812 573.069C536.163 572.279 536.693 571.666 537.404 571.231C538.119 570.792 539.022 570.572 540.111 570.572C541.177 570.572 542.063 570.79 542.769 571.224C543.475 571.659 544.003 572.272 544.354 573.062C544.709 573.847 544.887 574.775 544.887 575.846ZM537.06 575.846C537.06 576.636 537.168 577.321 537.383 577.901C537.598 578.476 537.928 578.92 538.372 579.233C538.821 579.542 539.396 579.696 540.097 579.696C540.803 579.696 541.378 579.542 541.822 579.233C542.266 578.92 542.593 578.476 542.804 577.901C543.014 577.321 543.119 576.636 543.119 575.846C543.119 574.644 542.879 573.705 542.397 573.027C541.92 572.344 541.158 572.003 540.111 572.003C539.41 572.003 538.832 572.157 538.379 572.466C537.93 572.774 537.598 573.216 537.383 573.791C537.168 574.361 537.06 575.046 537.06 575.846ZM550.258 570.733C551.142 570.733 551.871 570.841 552.446 571.056C553.026 571.271 553.456 571.598 553.737 572.038C554.022 572.477 554.165 573.036 554.165 573.714C554.165 574.219 554.071 574.649 553.884 575.004C553.697 575.36 553.452 575.654 553.148 575.888C552.844 576.122 552.519 576.309 552.173 576.449L555.083 580.986H553.183L550.707 576.877H549.059V580.986H547.376V570.733H550.258ZM550.146 572.136H549.059V575.488H550.223C551.004 575.488 551.57 575.343 551.92 575.053C552.276 574.764 552.453 574.336 552.453 573.77C552.453 573.176 552.264 572.755 551.885 572.508C551.511 572.26 550.932 572.136 550.146 572.136ZM565.161 575.762C565.161 576.916 564.946 577.882 564.515 578.658C564.085 579.429 563.461 580.012 562.643 580.404C561.825 580.792 560.838 580.986 559.683 580.986H556.836V570.733H559.992C561.053 570.733 561.97 570.925 562.741 571.308C563.513 571.687 564.109 572.251 564.529 572.999C564.95 573.742 565.161 574.663 565.161 575.762ZM563.407 575.811C563.407 574.969 563.274 574.277 563.008 573.735C562.746 573.193 562.358 572.791 561.843 572.529C561.334 572.262 560.705 572.129 559.957 572.129H558.519V579.577H559.712C560.95 579.577 561.876 579.261 562.489 578.63C563.101 577.999 563.407 577.059 563.407 575.811ZM573.464 580.986H567.657V570.733H573.464V572.15H569.34V574.934H573.204V576.344H569.34V579.563H573.464V580.986ZM578.849 570.733C579.733 570.733 580.462 570.841 581.037 571.056C581.617 571.271 582.047 571.598 582.328 572.038C582.613 572.477 582.756 573.036 582.756 573.714C582.756 574.219 582.662 574.649 582.475 575.004C582.288 575.36 582.043 575.654 581.739 575.888C581.435 576.122 581.11 576.309 580.764 576.449L583.674 580.986H581.774L579.298 576.877H577.65V580.986H575.967V570.733H578.849ZM578.737 572.136H577.65V575.488H578.814C579.595 575.488 580.161 575.343 580.511 575.053C580.867 574.764 581.044 574.336 581.044 573.77C581.044 573.176 580.855 572.755 580.476 572.508C580.102 572.26 579.523 572.136 578.737 572.136ZM585.427 580.986V570.733H587.11V580.986H585.427ZM598.66 580.986H596.591L591.57 572.802H591.507C591.526 573.078 591.542 573.37 591.556 573.679C591.575 573.987 591.589 574.305 591.598 574.633C591.612 574.96 591.624 575.292 591.633 575.628V580.986H590.105V570.733H592.159L597.174 578.861H597.223C597.213 578.623 597.202 578.349 597.188 578.041C597.174 577.732 597.16 577.414 597.146 577.087C597.136 576.755 597.129 576.435 597.124 576.126V570.733H598.66V580.986ZM605.778 575.418H609.607V580.566C609.07 580.743 608.513 580.881 607.938 580.979C607.363 581.077 606.718 581.127 606.003 581.127C604.96 581.127 604.076 580.921 603.352 580.509C602.632 580.093 602.085 579.493 601.711 578.707C601.337 577.917 601.15 576.966 601.15 575.853C601.15 574.782 601.358 573.854 601.774 573.069C602.19 572.279 602.795 571.668 603.59 571.238C604.385 570.804 605.348 570.586 606.479 570.586C607.036 570.586 607.573 570.642 608.092 570.754C608.616 570.862 609.095 571.012 609.53 571.203L608.941 572.592C608.595 572.428 608.207 572.29 607.777 572.178C607.347 572.066 606.9 572.01 606.437 572.01C605.703 572.01 605.07 572.169 604.537 572.487C604.009 572.805 603.602 573.253 603.317 573.833C603.031 574.408 602.889 575.088 602.889 575.874C602.889 576.636 603.003 577.305 603.232 577.88C603.462 578.455 603.819 578.903 604.305 579.226C604.796 579.544 605.43 579.703 606.206 579.703C606.594 579.703 606.924 579.682 607.195 579.64C607.466 579.598 607.716 579.551 607.945 579.5V576.856H605.778V575.418ZM622.286 578.195C622.286 578.803 622.136 579.327 621.837 579.766C621.543 580.206 621.117 580.542 620.561 580.776C620.009 581.01 619.35 581.127 618.583 581.127C618.209 581.127 617.852 581.106 617.51 581.063C617.169 581.021 616.846 580.961 616.542 580.881C616.243 580.797 615.97 580.696 615.722 580.58V578.995C616.138 579.177 616.603 579.343 617.118 579.493C617.632 579.638 618.155 579.71 618.688 579.71C619.123 579.71 619.483 579.654 619.768 579.542C620.058 579.425 620.273 579.261 620.414 579.051C620.554 578.836 620.624 578.586 620.624 578.3C620.624 577.996 620.542 577.739 620.379 577.529C620.215 577.319 619.967 577.127 619.635 576.954C619.308 576.776 618.896 576.587 618.401 576.386C618.064 576.25 617.742 576.096 617.433 575.923C617.129 575.75 616.858 575.547 616.62 575.313C616.381 575.079 616.192 574.803 616.052 574.485C615.916 574.163 615.848 573.784 615.848 573.349C615.848 572.769 615.986 572.274 616.262 571.862C616.542 571.451 616.935 571.135 617.44 570.916C617.95 570.696 618.543 570.586 619.221 570.586C619.759 570.586 620.264 570.642 620.736 570.754C621.213 570.867 621.681 571.026 622.139 571.231L621.606 572.585C621.185 572.412 620.776 572.274 620.379 572.171C619.986 572.068 619.584 572.017 619.172 572.017C618.817 572.017 618.515 572.071 618.268 572.178C618.02 572.286 617.831 572.438 617.7 572.634C617.573 572.826 617.51 573.055 617.51 573.321C617.51 573.62 617.583 573.873 617.728 574.079C617.877 574.28 618.106 574.464 618.415 574.633C618.728 574.801 619.13 574.988 619.621 575.194C620.187 575.427 620.666 575.673 621.059 575.93C621.456 576.187 621.76 576.496 621.97 576.856C622.181 577.211 622.286 577.658 622.286 578.195ZM627.454 575.411L629.888 570.733H631.704L628.296 577.003V580.986H626.62V577.066L623.204 570.733H625.035L627.454 575.411ZM639.257 578.195C639.257 578.803 639.107 579.327 638.808 579.766C638.513 580.206 638.088 580.542 637.532 580.776C636.98 581.01 636.321 581.127 635.554 581.127C635.18 581.127 634.822 581.106 634.481 581.063C634.14 581.021 633.817 580.961 633.513 580.881C633.214 580.797 632.941 580.696 632.693 580.58V578.995C633.109 579.177 633.574 579.343 634.088 579.493C634.603 579.638 635.126 579.71 635.659 579.71C636.094 579.71 636.454 579.654 636.739 579.542C637.029 579.425 637.244 579.261 637.384 579.051C637.525 578.836 637.595 578.586 637.595 578.3C637.595 577.996 637.513 577.739 637.349 577.529C637.186 577.319 636.938 577.127 636.606 576.954C636.279 576.776 635.867 576.587 635.372 576.386C635.035 576.25 634.712 576.096 634.404 575.923C634.1 575.75 633.829 575.547 633.59 575.313C633.352 575.079 633.163 574.803 633.022 574.485C632.887 574.163 632.819 573.784 632.819 573.349C632.819 572.769 632.957 572.274 633.233 571.862C633.513 571.451 633.906 571.135 634.411 570.916C634.92 570.696 635.514 570.586 636.192 570.586C636.73 570.586 637.235 570.642 637.707 570.754C638.184 570.867 638.651 571.026 639.11 571.231L638.577 572.585C638.156 572.412 637.747 572.274 637.349 572.171C636.957 572.068 636.555 572.017 636.143 572.017C635.788 572.017 635.486 572.071 635.238 572.178C634.991 572.286 634.801 572.438 634.67 572.634C634.544 572.826 634.481 573.055 634.481 573.321C634.481 573.62 634.553 573.873 634.698 574.079C634.848 574.28 635.077 574.464 635.386 574.633C635.699 574.801 636.101 574.988 636.592 575.194C637.158 575.427 637.637 575.673 638.03 575.93C638.427 576.187 638.731 576.496 638.941 576.856C639.152 577.211 639.257 577.658 639.257 578.195ZM645.077 580.986H643.387V572.164H640.386V570.733H648.072V572.164H645.077V580.986ZM655.737 580.986H649.93V570.733H655.737V572.15H651.613V574.934H655.477V576.344H651.613V579.563H655.737V580.986ZM662.665 580.986L659.713 572.424H659.65C659.664 572.615 659.68 572.877 659.699 573.209C659.717 573.541 659.734 573.896 659.748 574.275C659.762 574.654 659.769 575.016 659.769 575.362V580.986H658.24V570.733H660.603L663.444 578.918H663.486L666.424 570.733H668.781V580.986H667.175V575.278C667.175 574.965 667.179 574.626 667.189 574.261C667.203 573.896 667.217 573.55 667.231 573.223C667.249 572.896 667.263 572.634 667.273 572.438H667.217L664.152 580.986H662.665Z" fill="black"></path>
</svg>
