<svg width="1010" height="1110" fill="none" xmlns="http://www.w3.org/2000/svg"><path d="M776.079 251.539H659.682c-2.849 0-5.18 2.331-5.18 5.18v73.817h-78.375v-73.817c0-2.849-2.331-5.18-5.18-5.18H442.17c-2.849 0-5.18 2.331-5.18 5.18v73.817h-78.375v-73.817c0-2.849-2.331-5.18-5.18-5.18H237.038c-2.849 0-5.18 2.331-5.18 5.18v137.687c0 3.73 1.347 7.356 3.834 10.205l31.08 35.691c2.901 3.367 4.248 7.77 3.678 12.173l-36.468 284.283 222.951-110.854c4.041-2.02 8.547 1.762 7.252 6.113l-35.431 121.214h352.608l-38.591-300.704c-.57-4.403.777-8.858 3.678-12.173l31.08-35.691a15.51 15.51 0 0 0 3.833-10.205V256.771c0-2.849-2.331-5.18-5.18-5.18l-.103-.052Z" fill="#FFCD34"/><path d="m292 1091.28 117.329-401.25L35.897 875.788l127.067 50.868L52.266 1058.59c-3.367 4.04-2.85 10.05 1.191 13.42l42.58 35.74c4.041 3.37 10.05 2.85 13.417-1.19l110.44-131.625L292 1091.28Z" fill="#231F20"/><path d="M504.593 0C225.904 0 0 225.904 0 504.593c0 112.149 36.623 215.75 98.525 299.564l92.154-45.843c-56.1-69.31-89.771-157.579-89.771-253.721 0-222.951 180.734-403.685 403.685-403.685s403.684 180.734 403.684 403.685-180.733 403.684-403.684 403.684c-40.457 0-79.463-6.009-116.293-17.094l-28.335 96.919c45.843 13.678 94.381 21.088 144.628 21.088 278.689 0 504.597-225.908 504.597-504.597C1009.19 225.904 783.282 0 504.593 0Z" fill="#FFCD34"/><path d="M946.55 925.515h16.473c1.274 0 3.024.076 5.253.227 2.228.151 4.416.681 6.565 1.588s4.019 2.343 5.611 4.309c1.591 1.89 2.387 4.612 2.387 8.165 0 2.268-.318 4.158-.955 5.67-.637 1.437-1.472 2.646-2.507 3.629-.955.908-2.109 1.626-3.462 2.155a17.446 17.446 0 0 1-3.939.907l11.937 17.578h-12.534l-10.624-17.011h-2.029v17.011H946.55v-44.228Zm12.056 18.372h4.895c.716 0 1.472-.038 2.268-.114a7.8 7.8 0 0 0 2.387-.567 4.45 4.45 0 0 0 1.791-1.361c.477-.68.716-1.587.716-2.721 0-1.134-.239-2.004-.716-2.609-.478-.68-1.075-1.171-1.791-1.474a7.859 7.859 0 0 0-2.387-.567 24.23 24.23 0 0 0-2.268-.113h-4.895v9.526Zm-39.392 4.196c0-5.822 1.154-11.265 3.461-16.33 2.388-5.141 5.571-9.602 9.55-13.382 4.059-3.856 8.754-6.88 14.086-9.072 5.412-2.268 11.181-3.403 17.309-3.403 6.128 0 11.858 1.135 17.19 3.403 5.411 2.192 10.107 5.216 14.086 9.072 4.058 3.78 7.244 8.241 9.554 13.382 2.38 5.065 3.58 10.508 3.58 16.33 0 5.821-1.2 11.302-3.58 16.443a42.793 42.793 0 0 1-9.554 13.382c-3.979 3.78-8.675 6.804-14.086 9.072-5.332 2.193-11.062 3.289-17.19 3.289-6.128 0-11.897-1.096-17.309-3.289-5.332-2.268-10.027-5.292-14.086-9.072-3.979-3.856-7.162-8.316-9.55-13.382-2.307-5.141-3.461-10.622-3.461-16.443Zm12.176 0c0 4.385.835 8.543 2.506 12.474 1.672 3.856 3.979 7.22 6.924 10.093 2.945 2.873 6.367 5.179 10.266 6.918 3.9 1.663 8.078 2.494 12.534 2.494 4.457 0 8.635-.831 12.534-2.494 3.9-1.739 7.322-4.045 10.266-6.918 2.945-2.873 5.253-6.237 6.924-10.093 1.671-3.931 2.507-8.089 2.507-12.474s-.836-8.506-2.507-12.361c-1.671-3.932-3.979-7.334-6.924-10.207-2.944-2.873-6.366-5.141-10.266-6.804-3.899-1.739-8.077-2.608-12.534-2.608-4.456 0-8.634.869-12.534 2.608-3.899 1.663-7.321 3.931-10.266 6.804-2.945 2.873-5.252 6.275-6.924 10.207-1.671 3.855-2.506 7.976-2.506 12.361ZM522.851 518.54l-7.802-14.101h8.177l4.84 10.346 7.51-10.346h7.885l-11.515 13.976 8.511 15.562h-8.177l-5.549-11.89-8.678 11.89h-7.719l12.517-15.437ZM547.592 504.439h10.973c1.532 0 2.956.137 4.274.417 1.323.28 2.443.757 3.361 1.442.918.686 1.597 1.597 2.044 2.754.447 1.156.543 2.61.293 4.363-.251 1.722-.74 3.17-1.461 4.339-.721 1.168-1.621 2.098-2.694 2.795-1.073.697-2.294 1.192-3.671 1.484a21.187 21.187 0 0 1-4.405.441h-4.756l-1.585 11.515h-6.509l4.13-29.539.006-.011Zm4.757 12.516h4.339a8.55 8.55 0 0 0 1.71-.167 5.2 5.2 0 0 0 1.544-.566 3.741 3.741 0 0 0 1.21-1.085c.334-.459.542-1.037.626-1.734.113-.751.024-1.359-.269-1.812a2.924 2.924 0 0 0-1.209-1.067 5.148 5.148 0 0 0-1.753-.477 17.556 17.556 0 0 0-1.895-.101h-3.338l-.959 7.009h-.006ZM573.876 504.439h11.432c1.502 0 2.909.149 4.214.435 1.305.292 2.42.78 3.338 1.46.918.679 1.597 1.597 2.044 2.753.447 1.157.542 2.593.292 4.322-.304 2.086-1.097 3.856-2.378 5.316-1.281 1.46-2.992 2.384-5.132 2.778l5.758 12.474h-7.802l-4.548-11.807h-3.212l-1.627 11.807h-6.509l4.13-29.538Zm4.798 12.224h3.839c.584 0 1.204-.024 1.859-.06a6.226 6.226 0 0 0 1.812-.375 3.88 3.88 0 0 0 1.461-.978c.417-.447.679-1.073.792-1.877.113-.751.042-1.347-.208-1.794a2.492 2.492 0 0 0-1.043-1.019 4.509 4.509 0 0 0-1.562-.477 12.732 12.732 0 0 0-1.77-.125h-4.256l-.918 6.717-.006-.012ZM601.163 504.439h20.068l-.835 6.007h-13.559l-.793 5.508h12.808l-.834 6.007H605.21l-.835 6.008h14.311l-.835 6.008h-20.819l4.131-29.538ZM640.798 511.655c-.447-.667-1.097-1.162-1.961-1.478-.864-.322-1.699-.482-2.503-.482-.471 0-.972.053-1.502.166a5.971 5.971 0 0 0-1.484.525 3.947 3.947 0 0 0-1.192.942c-.334.387-.543.864-.626 1.418-.084.668.036 1.216.352 1.645.321.429.78.793 1.376 1.085.596.292 1.294.548 2.086.769.793.22 1.592.471 2.396.751.805.28 1.592.614 2.361 1.001a7.116 7.116 0 0 1 1.984 1.478c.555.596.966 1.347 1.234 2.253.262.906.298 1.997.101 3.278-.22 1.639-.733 3.076-1.525 4.298a10.88 10.88 0 0 1-2.921 3.045 12.41 12.41 0 0 1-3.88 1.794c-1.43.388-2.914.584-4.446.584-1.919 0-3.66-.292-5.215-.876-1.556-.584-2.963-1.532-4.214-2.837l5.382-5.09a5.634 5.634 0 0 0 2.235 2.062c.93.489 1.937.733 3.022.733a7.39 7.39 0 0 0 1.627-.19 6.181 6.181 0 0 0 1.543-.566 3.957 3.957 0 0 0 1.193-.96c.321-.387.524-.846.602-1.377.137-.888-.102-1.591-.728-2.11-.625-.512-1.424-.953-2.402-1.317a69.119 69.119 0 0 0-3.17-1.085 12.931 12.931 0 0 1-3.129-1.46 6.616 6.616 0 0 1-2.236-2.42c-.542-1.001-.703-2.324-.482-3.963.22-1.586.733-2.974 1.525-4.172a10.932 10.932 0 0 1 2.939-3.004 12.982 12.982 0 0 1 3.88-1.812 15.524 15.524 0 0 1 4.297-.602c1.669 0 3.249.238 4.733.709a9.166 9.166 0 0 1 3.862 2.378l-5.132 4.881.018.006ZM664.747 511.655c-.447-.667-1.097-1.162-1.961-1.478-.864-.322-1.698-.482-2.503-.482-.471 0-.972.053-1.502.166a5.986 5.986 0 0 0-1.484.525 3.959 3.959 0 0 0-1.192.942c-.334.387-.542.864-.626 1.418-.083.668.036 1.216.352 1.645.322.429.781.793 1.377 1.085.596.292 1.293.548 2.086.769.792.22 1.591.471 2.396.751.804.28 1.591.614 2.36 1.001a7.135 7.135 0 0 1 1.985 1.478c.554.596.965 1.347 1.233 2.253.263.906.298 1.997.102 3.278-.221 1.639-.733 3.076-1.526 4.298a10.867 10.867 0 0 1-2.921 3.045 12.4 12.4 0 0 1-3.88 1.794c-1.43.388-2.914.584-4.446.584-1.919 0-3.66-.292-5.215-.876-1.556-.584-2.962-1.532-4.214-2.837l5.382-5.09a5.634 5.634 0 0 0 2.235 2.062c.93.489 1.937.733 3.022.733a7.39 7.39 0 0 0 1.627-.19 6.203 6.203 0 0 0 1.544-.566c.471-.251.87-.573 1.192-.96.322-.387.524-.846.602-1.377.137-.888-.102-1.591-.727-2.11-.626-.512-1.425-.953-2.402-1.317a69.595 69.595 0 0 0-3.171-1.085 12.931 12.931 0 0 1-3.129-1.46 6.605 6.605 0 0 1-2.235-2.42c-.543-1.001-.704-2.324-.483-3.963.22-1.586.733-2.974 1.526-4.172.792-1.198 1.77-2.2 2.938-3.004a12.993 12.993 0 0 1 3.88-1.812 15.53 15.53 0 0 1 4.297-.602c1.669 0 3.249.238 4.733.709a9.166 9.166 0 0 1 3.862 2.378l-5.132 4.881.018.006ZM490.289 510.497h20.146l.85-6.038h-20.141l-.855 6.038ZM482.635 522.069h20.141l.85-6.038h-20.141l-.85 6.038ZM486.985 534.12h20.147l.85-6.037h-20.147l-.85 6.037ZM391.428 508.763l-43.142 21.457 18.824 7.527 10.759 17.371 13.559-46.355Z" fill="#231F20"/><path d="M433.786 458.113h-13.445a.6.6 0 0 0-.599.598v8.527h-9.053v-8.527a.6.6 0 0 0-.598-.598h-14.875a.6.6 0 0 0-.599.598v8.527h-9.053v-8.527a.6.6 0 0 0-.598-.598H371.52a.6.6 0 0 0-.598.598v15.905c0 .431.156.85.443 1.179l3.59 4.122c.335.389.491.898.425 1.407l-4.213 32.838 25.754-12.805a.597.597 0 0 1 .838.706l-4.093 14.001h40.73l-4.458-34.734a1.796 1.796 0 0 1 .425-1.407l3.59-4.122c.288-.329.443-.748.443-1.179v-15.905a.6.6 0 0 0-.598-.598l-.012-.006Z" fill="#231F20"/><path d="m377.869 555.112 13.553-46.349-43.136 21.457 14.678 5.876-12.787 15.24a1.1 1.1 0 0 0 .138 1.55l4.918 4.129a1.1 1.1 0 0 0 1.55-.138l12.757-15.204 8.329 13.439Z" fill="#231F20"/><path d="M402.426 429.057c-32.192 0-58.286 26.095-58.286 58.287a58.048 58.048 0 0 0 11.38 34.603l10.645-5.296a46.426 46.426 0 0 1-10.369-29.307c0-25.754 20.877-46.631 46.63-46.631 25.753 0 46.63 20.877 46.63 46.631 0 25.753-20.877 46.63-46.63 46.63-4.673 0-9.179-.694-13.433-1.975l-3.273 11.196a58.374 58.374 0 0 0 16.706 2.435c32.192 0 58.286-26.095 58.286-58.286 0-32.192-26.094-58.287-58.286-58.287ZM453.478 535.965h1.903c.147 0 .349.009.606.026.258.018.51.079.759.184.248.104.464.27.648.497.184.219.276.533.276.944 0 .262-.037.48-.111.655-.073.166-.17.305-.289.419a1.221 1.221 0 0 1-.4.249 2.017 2.017 0 0 1-.455.104l1.379 2.031h-1.448l-1.227-1.965h-.235v1.965h-1.406v-5.109Zm1.392 2.122h.566a2.7 2.7 0 0 0 .262-.013.915.915 0 0 0 .276-.065.517.517 0 0 0 .206-.158.529.529 0 0 0 .083-.314.471.471 0 0 0-.083-.301.477.477 0 0 0-.206-.171.946.946 0 0 0-.276-.065 2.7 2.7 0 0 0-.262-.013h-.566v1.1Zm-4.55.485c0-.673.133-1.301.4-1.886a5.022 5.022 0 0 1 1.103-1.546 5.207 5.207 0 0 1 1.627-1.048 5.122 5.122 0 0 1 2-.393 5.02 5.02 0 0 1 1.985.393 4.998 4.998 0 0 1 1.627 1.048c.469.436.837.952 1.103 1.546.276.585.414 1.213.414 1.886 0 .672-.138 1.305-.414 1.899a4.922 4.922 0 0 1-1.103 1.546 5.31 5.31 0 0 1-1.627 1.048 5.175 5.175 0 0 1-1.985.38 5.28 5.28 0 0 1-2-.38 5.548 5.548 0 0 1-1.627-1.048 5.246 5.246 0 0 1-1.103-1.546 4.578 4.578 0 0 1-.4-1.899Zm1.407 0c0 .506.096.987.289 1.441.193.445.46.834.8 1.166.34.332.735.598 1.186.799.45.192.933.288 1.448.288a3.65 3.65 0 0 0 1.447-.288 4.026 4.026 0 0 0 1.186-.799c.34-.332.607-.721.8-1.166.193-.454.29-.935.29-1.441a3.55 3.55 0 0 0-.29-1.428 3.594 3.594 0 0 0-.8-1.179 3.824 3.824 0 0 0-1.186-.786 3.51 3.51 0 0 0-1.447-.301c-.515 0-.998.1-1.448.301a3.824 3.824 0 0 0-1.186.786c-.34.332-.607.725-.8 1.179a3.55 3.55 0 0 0-.289 1.428ZM519.315 454.105a11.208 11.208 0 0 0-4.139-3.147c-1.637-.735-3.524-1.1-5.675-1.1-2.15 0-4.139.419-5.967 1.243a14.354 14.354 0 0 0-4.76 3.476c-1.344 1.487-2.389 3.255-3.148 5.31-.758 2.049-1.135 4.271-1.135 6.66 0 2.389.377 4.677 1.135 6.701.759 2.025 1.792 3.781 3.112 5.275a14.154 14.154 0 0 0 4.647 3.476c1.78.83 3.697 1.242 5.746 1.242 2.341 0 4.414-.49 6.224-1.463 1.804-.974 3.297-2.342 4.467-4.098l9.515 7.102c-2.198 3.076-4.975 5.346-8.344 6.809-3.369 1.464-6.833 2.198-10.399 2.198-4.049 0-7.788-.633-11.199-1.905-3.416-1.266-6.367-3.088-8.858-5.453-2.491-2.366-4.432-5.233-5.817-8.601-1.392-3.369-2.085-7.126-2.085-11.277 0-4.151.693-7.908 2.085-11.277 1.391-3.369 3.332-6.236 5.817-8.601 2.491-2.365 5.442-4.187 8.858-5.453 3.417-1.267 7.15-1.906 11.199-1.906 1.464 0 2.987.138 4.576.4 1.582.269 3.147.693 4.688 1.285a21.288 21.288 0 0 1 4.432 2.341 17.698 17.698 0 0 1 3.805 3.59l-8.786 7.173h.006ZM547.065 450.736h-14.789v-10.101h40.999v10.107h-14.789v41.727h-11.421v-41.733ZM578.913 440.635h11.42v51.834h-11.42v-51.834ZM633.165 454.105a11.22 11.22 0 0 0-4.139-3.148c-1.637-.734-3.525-1.099-5.675-1.099s-4.139.418-5.967 1.243a14.354 14.354 0 0 0-4.76 3.476c-1.344 1.487-2.389 3.255-3.148 5.31-.758 2.049-1.135 4.271-1.135 6.66 0 2.389.377 4.677 1.135 6.701.759 2.025 1.792 3.781 3.112 5.274a14.157 14.157 0 0 0 4.647 3.477c1.78.83 3.697 1.242 5.746 1.242 2.341 0 4.414-.49 6.224-1.463 1.804-.974 3.297-2.342 4.467-4.098l9.515 7.102c-2.198 3.076-4.975 5.346-8.344 6.809-3.369 1.464-6.833 2.198-10.399 2.198-4.049 0-7.788-.633-11.199-1.905-3.416-1.266-6.367-3.088-8.858-5.453-2.491-2.366-4.432-5.233-5.823-8.601-1.392-3.369-2.085-7.126-2.085-11.277 0-4.152.693-7.908 2.085-11.277 1.391-3.369 3.332-6.236 5.823-8.601 2.491-2.366 5.442-4.187 8.858-5.454 3.417-1.266 7.15-1.905 11.199-1.905 1.464 0 2.987.137 4.576.4 1.582.269 3.147.693 4.682 1.284a21.492 21.492 0 0 1 4.432 2.342 17.673 17.673 0 0 1 3.805 3.59l-8.786 7.173h.012Z" fill="#231F20"/><path d="M355.34 575.846c0 .79-.1 1.51-.301 2.16a4.639 4.639 0 0 1-.891 1.669c-.397.463-.895.82-1.494 1.073-.598.252-1.299.379-2.104.379-.818 0-1.528-.127-2.132-.379a3.94 3.94 0 0 1-1.493-1.08 4.663 4.663 0 0 1-.884-1.676 7.462 7.462 0 0 1-.294-2.16c0-1.057.172-1.978.518-2.763a4.006 4.006 0 0 1 1.592-1.838c.716-.439 1.618-.659 2.707-.659 1.066 0 1.952.218 2.658.652a4.01 4.01 0 0 1 1.585 1.838c.356.785.533 1.713.533 2.784Zm-7.826 0c0 .79.107 1.475.322 2.055.215.575.545 1.019.989 1.332.449.309 1.024.463 1.725.463.706 0 1.281-.154 1.726-.463.444-.313.771-.757.981-1.332.211-.58.316-1.265.316-2.055 0-1.202-.241-2.141-.722-2.819-.477-.683-1.239-1.024-2.287-1.024-.701 0-1.278.154-1.732.463-.449.308-.781.75-.996 1.325-.215.57-.322 1.255-.322 2.055Zm18.871 5.14h-2.068l-5.022-8.184h-.063c.019.276.035.568.049.877.019.308.033.626.042.954.014.327.026.659.035.995v5.358h-1.528v-10.253h2.054l5.015 8.128h.049l-.035-.82-.042-.954c-.01-.332-.017-.652-.022-.961v-5.393h1.536v10.253Zm2.981 0v-10.253h1.683v8.823h4.355v1.43h-6.038Zm8.099 0v-10.253h1.683v10.253h-1.683Zm13.233 0h-2.068l-5.022-8.184h-.063c.019.276.035.568.049.877.019.308.033.626.042.954.014.327.026.659.035.995v5.358h-1.528v-10.253h2.054l5.015 8.128h.049l-.035-.82-.042-.954a56.02 56.02 0 0 1-.021-.961v-5.393h1.535v10.253Zm8.787 0h-5.806v-10.253h5.806v1.417h-4.123v2.784h3.864v1.41h-3.864v3.219h4.123v1.423Zm10.077 0h-1.69v-8.822h-3.001v-1.431h7.686v1.431h-2.995v8.822Zm4.853 0v-10.253h1.683v10.253h-1.683Zm8.233 0h-1.69v-8.822h-3.002v-1.431h7.686v1.431h-2.994v8.822Zm4.853 0v-10.253h1.683v8.823h4.355v1.43h-6.038Zm13.906 0H435.6v-10.253h5.807v1.417h-4.124v2.784h3.865v1.41h-3.865v3.219h4.124v1.423Zm6.522 0v-10.253h1.683v10.253h-1.683Zm13.233 0h-2.069l-5.021-8.184h-.064c.019.276.036.568.05.877.018.308.032.626.042.954.014.327.025.659.035.995v5.358h-1.529v-10.253h2.055l5.014 8.128h.049c-.009-.238-.021-.512-.035-.82l-.042-.954a88.055 88.055 0 0 1-.021-.961v-5.393h1.536v10.253Zm8.899-2.791c0 .608-.15 1.132-.449 1.571-.295.44-.72.776-1.276 1.01-.552.234-1.211.351-1.978.351-.374 0-.732-.021-1.073-.064a7.324 7.324 0 0 1-.968-.182 5.307 5.307 0 0 1-.82-.301v-1.585c.416.182.881.348 1.395.498a5.766 5.766 0 0 0 1.571.217c.435 0 .795-.056 1.08-.168.29-.117.505-.281.645-.491.141-.215.211-.465.211-.751 0-.304-.082-.561-.246-.771-.163-.21-.411-.402-.743-.575a12.374 12.374 0 0 0-1.234-.568 8.371 8.371 0 0 1-.968-.463 3.944 3.944 0 0 1-.814-.61 2.66 2.66 0 0 1-.568-.828c-.135-.322-.203-.701-.203-1.136 0-.58.138-1.075.414-1.487.28-.411.673-.727 1.178-.946.509-.22 1.103-.33 1.781-.33.538 0 1.043.056 1.515.168.477.113.944.272 1.403.477l-.533 1.354a9.495 9.495 0 0 0-1.228-.414 4.725 4.725 0 0 0-1.206-.154c-.355 0-.657.054-.905.161-.247.108-.437.26-.568.456a1.224 1.224 0 0 0-.189.687c0 .299.072.552.217.758.15.201.379.385.688.554.313.168.715.355 1.206.561a8.663 8.663 0 0 1 1.438.736c.397.257.701.566.911.926.211.355.316.802.316 1.339Zm10.316-7.462v6.635c0 .715-.152 1.355-.456 1.921-.299.566-.753 1.015-1.361 1.347-.608.327-1.372.491-2.293.491-1.314 0-2.314-.344-3.002-1.031-.682-.692-1.023-1.611-1.023-2.756v-6.607h1.683v6.459c0 .856.201 1.487.603 1.894.402.407 1.003.61 1.802.61.552 0 1.001-.096 1.347-.288.35-.196.607-.481.771-.855.168-.379.252-.835.252-1.368v-6.452h1.677Zm5.792 0c.884 0 1.613.108 2.188.323.58.215 1.01.542 1.29.982.286.439.428.998.428 1.676 0 .505-.093.935-.28 1.29a2.66 2.66 0 0 1-.737.884 4.15 4.15 0 0 1-.974.561l2.91 4.537h-1.901l-2.475-4.109h-1.648v4.109h-1.683v-10.253h2.882Zm-.112 1.403h-1.087v3.352h1.164c.781 0 1.346-.145 1.697-.435.355-.289.533-.717.533-1.283 0-.594-.189-1.015-.568-1.262-.374-.248-.954-.372-1.739-.372Zm13.044 8.85-1.003-2.847h-3.92l-1.003 2.847H491.4l3.815-10.295h1.866l3.808 10.295h-1.788Zm-1.438-4.292-.975-2.805a52.708 52.708 0 0 0-.161-.512l-.211-.68-.175-.589a14.62 14.62 0 0 1-.175.645 18.97 18.97 0 0 1-.197.659l-.14.477-.982 2.805h3.016Zm13.422 4.292h-2.068l-5.022-8.184h-.063c.019.276.035.568.049.877.019.308.033.626.042.954.014.327.026.659.035.995v5.358h-1.528v-10.253h2.054l5.015 8.128h.049l-.035-.82-.042-.954a56.02 56.02 0 0 1-.021-.961v-5.393h1.535v10.253Zm7.35-8.969c-.491 0-.931.089-1.319.266a2.658 2.658 0 0 0-.975.772 3.503 3.503 0 0 0-.61 1.213 5.62 5.62 0 0 0-.21 1.599c0 .795.112 1.48.337 2.055.224.57.565 1.01 1.023 1.318.459.304 1.038.456 1.74.456.434 0 .858-.042 1.269-.126.411-.084.837-.199 1.276-.344v1.431a6.505 6.505 0 0 1-1.262.357 8.552 8.552 0 0 1-1.473.113c-1.047 0-1.917-.218-2.608-.653-.688-.434-1.202-1.047-1.543-1.837-.337-.79-.505-1.716-.505-2.777 0-.776.107-1.487.322-2.132a4.784 4.784 0 0 1 .94-1.669 4.066 4.066 0 0 1 1.522-1.087c.608-.257 1.302-.386 2.083-.386.514 0 1.019.059 1.515.175.5.113.963.274 1.388.484l-.589 1.389a8.715 8.715 0 0 0-1.115-.435 4.028 4.028 0 0 0-1.206-.182Zm10.827 8.969h-5.806v-10.253h5.806v1.417h-4.123v2.784h3.864v1.41h-3.864v3.219h4.123v1.423Zm15.625-5.14c0 .79-.101 1.51-.302 2.16a4.622 4.622 0 0 1-.89 1.669 3.98 3.98 0 0 1-1.494 1.073c-.599.252-1.3.379-2.104.379-.818 0-1.529-.127-2.132-.379a3.944 3.944 0 0 1-1.494-1.08 4.662 4.662 0 0 1-.883-1.676 7.428 7.428 0 0 1-.295-2.16c0-1.057.173-1.978.519-2.763a4 4 0 0 1 1.592-1.838c.715-.439 1.618-.659 2.707-.659 1.066 0 1.952.218 2.658.652a4.015 4.015 0 0 1 1.585 1.838c.355.785.533 1.713.533 2.784Zm-7.827 0c0 .79.108 1.475.323 2.055.215.575.545 1.019.989 1.332.449.309 1.024.463 1.725.463.706 0 1.281-.154 1.725-.463.444-.313.771-.757.982-1.332.21-.58.315-1.265.315-2.055 0-1.202-.24-2.141-.722-2.819-.477-.683-1.239-1.024-2.286-1.024-.701 0-1.279.154-1.732.463-.449.308-.781.75-.996 1.325-.215.57-.323 1.255-.323 2.055Zm13.198-5.113c.884 0 1.613.108 2.188.323.58.215 1.01.542 1.291.982.285.439.428.998.428 1.676 0 .505-.094.935-.281 1.29-.187.356-.432.65-.736.884a4.137 4.137 0 0 1-.975.561l2.91 4.537h-1.9l-2.476-4.109h-1.648v4.109h-1.683v-10.253h2.882Zm-.112 1.403h-1.087v3.352h1.164c.781 0 1.347-.145 1.697-.435.356-.289.533-.717.533-1.283 0-.594-.189-1.015-.568-1.262-.374-.248-.953-.372-1.739-.372Zm15.015 3.626c0 1.154-.215 2.12-.646 2.896a4.133 4.133 0 0 1-1.872 1.746c-.818.388-1.805.582-2.96.582h-2.847v-10.253h3.156c1.061 0 1.978.192 2.749.575a4.054 4.054 0 0 1 1.788 1.691c.421.743.632 1.664.632 2.763Zm-1.754.049c0-.842-.133-1.534-.399-2.076a2.56 2.56 0 0 0-1.165-1.206c-.509-.267-1.138-.4-1.886-.4h-1.438v7.448h1.193c1.238 0 2.164-.316 2.777-.947.612-.631.918-1.571.918-2.819Zm10.057 5.175h-5.807v-10.253h5.807v1.417h-4.124v2.784h3.864v1.41h-3.864v3.219h4.124v1.423Zm5.385-10.253c.884 0 1.613.108 2.188.323.58.215 1.01.542 1.291.982.285.439.428.998.428 1.676 0 .505-.094.935-.281 1.29-.187.356-.432.65-.736.884a4.137 4.137 0 0 1-.975.561l2.91 4.537h-1.9l-2.476-4.109h-1.648v4.109h-1.683v-10.253h2.882Zm-.112 1.403h-1.087v3.352h1.164c.781 0 1.347-.145 1.697-.435.356-.289.533-.717.533-1.283 0-.594-.189-1.015-.568-1.262-.374-.248-.953-.372-1.739-.372Zm6.69 8.85v-10.253h1.683v10.253h-1.683Zm13.233 0h-2.069l-5.021-8.184h-.063c.019.276.035.568.049.877.019.308.033.626.042.954.014.327.026.659.035.995v5.358h-1.528v-10.253h2.054l5.015 8.128h.049l-.035-.82-.042-.954c-.01-.332-.017-.652-.022-.961v-5.393h1.536v10.253Zm7.118-5.568h3.829v5.148c-.537.177-1.094.315-1.669.413-.575.098-1.22.148-1.935.148-1.043 0-1.927-.206-2.651-.618-.72-.416-1.267-1.016-1.641-1.802-.374-.79-.561-1.741-.561-2.854 0-1.071.208-1.999.624-2.784a4.34 4.34 0 0 1 1.816-1.831c.795-.434 1.758-.652 2.889-.652.557 0 1.094.056 1.613.168a7.167 7.167 0 0 1 1.438.449l-.589 1.389a6.6 6.6 0 0 0-1.164-.414 5.297 5.297 0 0 0-1.34-.168c-.734 0-1.367.159-1.9.477a3.156 3.156 0 0 0-1.22 1.346c-.286.575-.428 1.255-.428 2.041 0 .762.114 1.431.343 2.006a2.83 2.83 0 0 0 1.073 1.346c.491.318 1.125.477 1.901.477.388 0 .718-.021.989-.063.271-.042.521-.089.75-.14v-2.644h-2.167v-1.438Zm16.508 2.777c0 .608-.15 1.132-.449 1.571-.294.44-.72.776-1.276 1.01-.552.234-1.211.351-1.978.351-.374 0-.731-.021-1.073-.064a7.324 7.324 0 0 1-.968-.182 5.345 5.345 0 0 1-.82-.301v-1.585c.416.182.881.348 1.396.498a5.753 5.753 0 0 0 1.57.217c.435 0 .795-.056 1.08-.168.29-.117.505-.281.646-.491.14-.215.21-.465.21-.751a1.22 1.22 0 0 0-.245-.771c-.164-.21-.412-.402-.744-.575a12.374 12.374 0 0 0-1.234-.568 8.45 8.45 0 0 1-.968-.463 3.911 3.911 0 0 1-.813-.61 2.626 2.626 0 0 1-.568-.828c-.136-.322-.204-.701-.204-1.136 0-.58.138-1.075.414-1.487.28-.411.673-.727 1.178-.946.51-.22 1.103-.33 1.781-.33.538 0 1.043.056 1.515.168a7.87 7.87 0 0 1 1.403.477l-.533 1.354a9.535 9.535 0 0 0-1.227-.414 4.739 4.739 0 0 0-1.207-.154c-.355 0-.657.054-.904.161-.248.108-.437.26-.568.456-.127.192-.19.421-.19.687 0 .299.073.552.218.758.149.201.378.385.687.554.313.168.715.355 1.206.561a8.663 8.663 0 0 1 1.438.736c.397.257.701.566.911.926.211.355.316.802.316 1.339Zm5.168-2.784 2.434-4.678h1.816l-3.408 6.27v3.983h-1.676v-3.92l-3.416-6.333h1.831l2.419 4.678Zm11.803 2.784c0 .608-.15 1.132-.449 1.571-.295.44-.72.776-1.276 1.01-.552.234-1.211.351-1.978.351-.374 0-.732-.021-1.073-.064a7.324 7.324 0 0 1-.968-.182 5.345 5.345 0 0 1-.82-.301v-1.585c.416.182.881.348 1.395.498a5.766 5.766 0 0 0 1.571.217c.435 0 .795-.056 1.08-.168.29-.117.505-.281.645-.491.141-.215.211-.465.211-.751 0-.304-.082-.561-.246-.771-.163-.21-.411-.402-.743-.575a12.374 12.374 0 0 0-1.234-.568 8.371 8.371 0 0 1-.968-.463 3.944 3.944 0 0 1-.814-.61 2.66 2.66 0 0 1-.568-.828c-.135-.322-.203-.701-.203-1.136 0-.58.138-1.075.414-1.487.28-.411.673-.727 1.178-.946.509-.22 1.103-.33 1.781-.33.538 0 1.043.056 1.515.168.477.113.944.272 1.403.477l-.533 1.354a9.495 9.495 0 0 0-1.228-.414 4.725 4.725 0 0 0-1.206-.154c-.355 0-.657.054-.905.161-.247.108-.437.26-.568.456a1.224 1.224 0 0 0-.189.687c0 .299.072.552.217.758.15.201.379.385.688.554.313.168.715.355 1.206.561a8.663 8.663 0 0 1 1.438.736c.397.257.701.566.911.926.211.355.316.802.316 1.339Zm5.82 2.791h-1.69v-8.822h-3.001v-1.431h7.686v1.431h-2.995v8.822Zm10.66 0h-5.807v-10.253h5.807v1.417h-4.124v2.784h3.864v1.41h-3.864v3.219h4.124v1.423Zm6.928 0-2.952-8.562h-.063a53.37 53.37 0 0 1 .098 1.851c.014.379.021.741.021 1.087v5.624h-1.529v-10.253h2.363l2.841 8.185h.042l2.938-8.185h2.357v10.253h-1.606v-5.708c0-.313.004-.652.014-1.017l.042-1.038.042-.785h-.056l-3.065 8.548h-1.487Z" fill="#000"/></svg>