<svg width="22" height="22" viewBox="0 0 22 22" fill="none" xmlns="http://www.w3.org/2000/svg">
<path d="M11 0C4.93341 0 0 4.93341 0 11C0 17.0666 4.93341 22 11 22C17.0666 22 22 17.0666 22 11C22 4.93341 17.0666 0 11 0ZM11 1.46675C16.2739 1.46675 20.5333 5.72629 20.5333 11.0001C20.5333 16.2739 16.2738 20.5334 11 20.5334C5.7262 20.5334 1.46667 16.2739 1.46667 11.0001C1.46667 5.72629 5.7262 1.46675 11 1.46675ZM11 4.88889C8.98373 4.88889 7.33333 6.53928 7.33333 8.55556C7.33061 8.75181 7.40665 8.94108 7.54442 9.08089C7.6822 9.22054 7.87044 9.29932 8.06671 9.29932C8.26297 9.29932 8.45104 9.22054 8.58899 9.08089C8.72676 8.94108 8.80281 8.75181 8.80008 8.55556C8.80008 7.33181 9.77624 6.35564 11 6.35564C12.2237 6.35564 13.1999 7.33181 13.1999 8.55556C13.1999 9.31656 12.8932 9.83609 12.3903 10.3661C11.8873 10.8958 11.1896 11.3755 10.5416 11.8938C10.3677 12.033 10.2664 12.2439 10.2666 12.4668V13.4444C10.2639 13.6407 10.3399 13.83 10.4777 13.9698C10.6154 14.1094 10.8037 14.1882 11 14.1882C11.1962 14.1882 11.3845 14.1094 11.5222 13.9698C11.66 13.83 11.7361 13.6407 11.7333 13.4444V12.8257C12.2675 12.4178 12.895 11.9692 13.4598 11.3743C14.1179 10.6808 14.6666 9.74539 14.6666 8.55556C14.6666 6.53928 13.0163 4.88889 11 4.88889ZM11 15.1556C10.46 15.1556 10.0223 15.5932 10.0223 16.1334C10.0223 16.6734 10.46 17.1111 11 17.1111C11.54 17.1111 11.9777 16.6734 11.9777 16.1334C11.9777 15.5932 11.54 15.1556 11 15.1556Z" fill="#231F20"></path>
</svg>
